%TF.GenerationSoftware,KiCad,Pcbnew,8.0.2-8.0.2-0~ubuntu20.04.1*%
%TF.CreationDate,2024-07-20T17:48:19+05:00*%
%TF.ProjectId,AlphaHagkemindt,416c7068-6148-4616-976b-656d696e6474,rev?*%
%TF.SameCoordinates,Original*%
%TF.FileFunction,Legend,Bot*%
%TF.FilePolarity,Positive*%
%FSLAX46Y46*%
G04 Gerber Fmt 4.6, Leading zero omitted, Abs format (unit mm)*
G04 Created by KiCad (PCBNEW 8.0.2-8.0.2-0~ubuntu20.04.1) date 2024-07-20 17:48:19*
%MOMM*%
%LPD*%
G01*
G04 APERTURE LIST*
%ADD10C,0.100000*%
%ADD11C,0.150000*%
%ADD12C,0.200000*%
%ADD13C,0.120000*%
G04 APERTURE END LIST*
D10*
X87000000Y-74000000D02*
X101500000Y-74000000D01*
X101500000Y-78000000D01*
X87000000Y-78000000D01*
X87000000Y-74000000D01*
G36*
X87000000Y-74000000D02*
G01*
X101500000Y-74000000D01*
X101500000Y-78000000D01*
X87000000Y-78000000D01*
X87000000Y-74000000D01*
G37*
D11*
X85484398Y-92852438D02*
X85579636Y-92804819D01*
X85579636Y-92804819D02*
X85722493Y-92804819D01*
X85722493Y-92804819D02*
X85865350Y-92852438D01*
X85865350Y-92852438D02*
X85960588Y-92947676D01*
X85960588Y-92947676D02*
X86008207Y-93042914D01*
X86008207Y-93042914D02*
X86055826Y-93233390D01*
X86055826Y-93233390D02*
X86055826Y-93376247D01*
X86055826Y-93376247D02*
X86008207Y-93566723D01*
X86008207Y-93566723D02*
X85960588Y-93661961D01*
X85960588Y-93661961D02*
X85865350Y-93757200D01*
X85865350Y-93757200D02*
X85722493Y-93804819D01*
X85722493Y-93804819D02*
X85627255Y-93804819D01*
X85627255Y-93804819D02*
X85484398Y-93757200D01*
X85484398Y-93757200D02*
X85436779Y-93709580D01*
X85436779Y-93709580D02*
X85436779Y-93376247D01*
X85436779Y-93376247D02*
X85627255Y-93376247D01*
X85008207Y-93804819D02*
X85008207Y-92804819D01*
X85008207Y-92804819D02*
X84436779Y-93804819D01*
X84436779Y-93804819D02*
X84436779Y-92804819D01*
X83960588Y-93804819D02*
X83960588Y-92804819D01*
X83960588Y-92804819D02*
X83722493Y-92804819D01*
X83722493Y-92804819D02*
X83579636Y-92852438D01*
X83579636Y-92852438D02*
X83484398Y-92947676D01*
X83484398Y-92947676D02*
X83436779Y-93042914D01*
X83436779Y-93042914D02*
X83389160Y-93233390D01*
X83389160Y-93233390D02*
X83389160Y-93376247D01*
X83389160Y-93376247D02*
X83436779Y-93566723D01*
X83436779Y-93566723D02*
X83484398Y-93661961D01*
X83484398Y-93661961D02*
X83579636Y-93757200D01*
X83579636Y-93757200D02*
X83722493Y-93804819D01*
X83722493Y-93804819D02*
X83960588Y-93804819D01*
X105258720Y-97614819D02*
X105258720Y-96614819D01*
X104782530Y-97614819D02*
X104782530Y-96614819D01*
X104782530Y-96614819D02*
X104211102Y-97614819D01*
X104211102Y-97614819D02*
X104211102Y-96614819D01*
X103877768Y-96614819D02*
X103306340Y-96614819D01*
X103592054Y-97614819D02*
X103592054Y-96614819D01*
X102449197Y-97614819D02*
X103020625Y-97614819D01*
X102734911Y-97614819D02*
X102734911Y-96614819D01*
X102734911Y-96614819D02*
X102830149Y-96757676D01*
X102830149Y-96757676D02*
X102925387Y-96852914D01*
X102925387Y-96852914D02*
X103020625Y-96900533D01*
X85246302Y-86184819D02*
X85246302Y-85184819D01*
X84770112Y-86184819D02*
X84770112Y-85184819D01*
X84770112Y-85184819D02*
X84198684Y-86184819D01*
X84198684Y-86184819D02*
X84198684Y-85184819D01*
X83865350Y-85184819D02*
X83293922Y-85184819D01*
X83579636Y-86184819D02*
X83579636Y-85184819D01*
X85817731Y-95344819D02*
X85198684Y-95344819D01*
X85198684Y-95344819D02*
X85532017Y-95725771D01*
X85532017Y-95725771D02*
X85389160Y-95725771D01*
X85389160Y-95725771D02*
X85293922Y-95773390D01*
X85293922Y-95773390D02*
X85246303Y-95821009D01*
X85246303Y-95821009D02*
X85198684Y-95916247D01*
X85198684Y-95916247D02*
X85198684Y-96154342D01*
X85198684Y-96154342D02*
X85246303Y-96249580D01*
X85246303Y-96249580D02*
X85293922Y-96297200D01*
X85293922Y-96297200D02*
X85389160Y-96344819D01*
X85389160Y-96344819D02*
X85674874Y-96344819D01*
X85674874Y-96344819D02*
X85770112Y-96297200D01*
X85770112Y-96297200D02*
X85817731Y-96249580D01*
X84912969Y-95344819D02*
X84579636Y-96344819D01*
X84579636Y-96344819D02*
X84246303Y-95344819D01*
X84008207Y-95344819D02*
X83389160Y-95344819D01*
X83389160Y-95344819D02*
X83722493Y-95725771D01*
X83722493Y-95725771D02*
X83579636Y-95725771D01*
X83579636Y-95725771D02*
X83484398Y-95773390D01*
X83484398Y-95773390D02*
X83436779Y-95821009D01*
X83436779Y-95821009D02*
X83389160Y-95916247D01*
X83389160Y-95916247D02*
X83389160Y-96154342D01*
X83389160Y-96154342D02*
X83436779Y-96249580D01*
X83436779Y-96249580D02*
X83484398Y-96297200D01*
X83484398Y-96297200D02*
X83579636Y-96344819D01*
X83579636Y-96344819D02*
X83865350Y-96344819D01*
X83865350Y-96344819D02*
X83960588Y-96297200D01*
X83960588Y-96297200D02*
X84008207Y-96249580D01*
X105306339Y-95027200D02*
X105163482Y-95074819D01*
X105163482Y-95074819D02*
X104925387Y-95074819D01*
X104925387Y-95074819D02*
X104830149Y-95027200D01*
X104830149Y-95027200D02*
X104782530Y-94979580D01*
X104782530Y-94979580D02*
X104734911Y-94884342D01*
X104734911Y-94884342D02*
X104734911Y-94789104D01*
X104734911Y-94789104D02*
X104782530Y-94693866D01*
X104782530Y-94693866D02*
X104830149Y-94646247D01*
X104830149Y-94646247D02*
X104925387Y-94598628D01*
X104925387Y-94598628D02*
X105115863Y-94551009D01*
X105115863Y-94551009D02*
X105211101Y-94503390D01*
X105211101Y-94503390D02*
X105258720Y-94455771D01*
X105258720Y-94455771D02*
X105306339Y-94360533D01*
X105306339Y-94360533D02*
X105306339Y-94265295D01*
X105306339Y-94265295D02*
X105258720Y-94170057D01*
X105258720Y-94170057D02*
X105211101Y-94122438D01*
X105211101Y-94122438D02*
X105115863Y-94074819D01*
X105115863Y-94074819D02*
X104877768Y-94074819D01*
X104877768Y-94074819D02*
X104734911Y-94122438D01*
X104353958Y-95027200D02*
X104211101Y-95074819D01*
X104211101Y-95074819D02*
X103973006Y-95074819D01*
X103973006Y-95074819D02*
X103877768Y-95027200D01*
X103877768Y-95027200D02*
X103830149Y-94979580D01*
X103830149Y-94979580D02*
X103782530Y-94884342D01*
X103782530Y-94884342D02*
X103782530Y-94789104D01*
X103782530Y-94789104D02*
X103830149Y-94693866D01*
X103830149Y-94693866D02*
X103877768Y-94646247D01*
X103877768Y-94646247D02*
X103973006Y-94598628D01*
X103973006Y-94598628D02*
X104163482Y-94551009D01*
X104163482Y-94551009D02*
X104258720Y-94503390D01*
X104258720Y-94503390D02*
X104306339Y-94455771D01*
X104306339Y-94455771D02*
X104353958Y-94360533D01*
X104353958Y-94360533D02*
X104353958Y-94265295D01*
X104353958Y-94265295D02*
X104306339Y-94170057D01*
X104306339Y-94170057D02*
X104258720Y-94122438D01*
X104258720Y-94122438D02*
X104163482Y-94074819D01*
X104163482Y-94074819D02*
X103925387Y-94074819D01*
X103925387Y-94074819D02*
X103782530Y-94122438D01*
X105396816Y-93797200D02*
X103692054Y-93797200D01*
X105258720Y-89994819D02*
X105258720Y-88994819D01*
X105258720Y-88994819D02*
X104925387Y-89709104D01*
X104925387Y-89709104D02*
X104592054Y-88994819D01*
X104592054Y-88994819D02*
X104592054Y-89994819D01*
X103925387Y-88994819D02*
X103734911Y-88994819D01*
X103734911Y-88994819D02*
X103639673Y-89042438D01*
X103639673Y-89042438D02*
X103544435Y-89137676D01*
X103544435Y-89137676D02*
X103496816Y-89328152D01*
X103496816Y-89328152D02*
X103496816Y-89661485D01*
X103496816Y-89661485D02*
X103544435Y-89851961D01*
X103544435Y-89851961D02*
X103639673Y-89947200D01*
X103639673Y-89947200D02*
X103734911Y-89994819D01*
X103734911Y-89994819D02*
X103925387Y-89994819D01*
X103925387Y-89994819D02*
X104020625Y-89947200D01*
X104020625Y-89947200D02*
X104115863Y-89851961D01*
X104115863Y-89851961D02*
X104163482Y-89661485D01*
X104163482Y-89661485D02*
X104163482Y-89328152D01*
X104163482Y-89328152D02*
X104115863Y-89137676D01*
X104115863Y-89137676D02*
X104020625Y-89042438D01*
X104020625Y-89042438D02*
X103925387Y-88994819D01*
X103115863Y-89947200D02*
X102973006Y-89994819D01*
X102973006Y-89994819D02*
X102734911Y-89994819D01*
X102734911Y-89994819D02*
X102639673Y-89947200D01*
X102639673Y-89947200D02*
X102592054Y-89899580D01*
X102592054Y-89899580D02*
X102544435Y-89804342D01*
X102544435Y-89804342D02*
X102544435Y-89709104D01*
X102544435Y-89709104D02*
X102592054Y-89613866D01*
X102592054Y-89613866D02*
X102639673Y-89566247D01*
X102639673Y-89566247D02*
X102734911Y-89518628D01*
X102734911Y-89518628D02*
X102925387Y-89471009D01*
X102925387Y-89471009D02*
X103020625Y-89423390D01*
X103020625Y-89423390D02*
X103068244Y-89375771D01*
X103068244Y-89375771D02*
X103115863Y-89280533D01*
X103115863Y-89280533D02*
X103115863Y-89185295D01*
X103115863Y-89185295D02*
X103068244Y-89090057D01*
X103068244Y-89090057D02*
X103020625Y-89042438D01*
X103020625Y-89042438D02*
X102925387Y-88994819D01*
X102925387Y-88994819D02*
X102687292Y-88994819D01*
X102687292Y-88994819D02*
X102544435Y-89042438D01*
X102115863Y-89994819D02*
X102115863Y-88994819D01*
X105306339Y-87407200D02*
X105163482Y-87454819D01*
X105163482Y-87454819D02*
X104925387Y-87454819D01*
X104925387Y-87454819D02*
X104830149Y-87407200D01*
X104830149Y-87407200D02*
X104782530Y-87359580D01*
X104782530Y-87359580D02*
X104734911Y-87264342D01*
X104734911Y-87264342D02*
X104734911Y-87169104D01*
X104734911Y-87169104D02*
X104782530Y-87073866D01*
X104782530Y-87073866D02*
X104830149Y-87026247D01*
X104830149Y-87026247D02*
X104925387Y-86978628D01*
X104925387Y-86978628D02*
X105115863Y-86931009D01*
X105115863Y-86931009D02*
X105211101Y-86883390D01*
X105211101Y-86883390D02*
X105258720Y-86835771D01*
X105258720Y-86835771D02*
X105306339Y-86740533D01*
X105306339Y-86740533D02*
X105306339Y-86645295D01*
X105306339Y-86645295D02*
X105258720Y-86550057D01*
X105258720Y-86550057D02*
X105211101Y-86502438D01*
X105211101Y-86502438D02*
X105115863Y-86454819D01*
X105115863Y-86454819D02*
X104877768Y-86454819D01*
X104877768Y-86454819D02*
X104734911Y-86502438D01*
X103734911Y-87359580D02*
X103782530Y-87407200D01*
X103782530Y-87407200D02*
X103925387Y-87454819D01*
X103925387Y-87454819D02*
X104020625Y-87454819D01*
X104020625Y-87454819D02*
X104163482Y-87407200D01*
X104163482Y-87407200D02*
X104258720Y-87311961D01*
X104258720Y-87311961D02*
X104306339Y-87216723D01*
X104306339Y-87216723D02*
X104353958Y-87026247D01*
X104353958Y-87026247D02*
X104353958Y-86883390D01*
X104353958Y-86883390D02*
X104306339Y-86692914D01*
X104306339Y-86692914D02*
X104258720Y-86597676D01*
X104258720Y-86597676D02*
X104163482Y-86502438D01*
X104163482Y-86502438D02*
X104020625Y-86454819D01*
X104020625Y-86454819D02*
X103925387Y-86454819D01*
X103925387Y-86454819D02*
X103782530Y-86502438D01*
X103782530Y-86502438D02*
X103734911Y-86550057D01*
X103306339Y-87454819D02*
X103306339Y-86454819D01*
X102734911Y-87454819D02*
X103163482Y-86883390D01*
X102734911Y-86454819D02*
X103306339Y-87026247D01*
X105258720Y-92534819D02*
X105258720Y-91534819D01*
X105258720Y-91534819D02*
X104925387Y-92249104D01*
X104925387Y-92249104D02*
X104592054Y-91534819D01*
X104592054Y-91534819D02*
X104592054Y-92534819D01*
X104115863Y-92534819D02*
X104115863Y-91534819D01*
X103687292Y-92487200D02*
X103544435Y-92534819D01*
X103544435Y-92534819D02*
X103306340Y-92534819D01*
X103306340Y-92534819D02*
X103211102Y-92487200D01*
X103211102Y-92487200D02*
X103163483Y-92439580D01*
X103163483Y-92439580D02*
X103115864Y-92344342D01*
X103115864Y-92344342D02*
X103115864Y-92249104D01*
X103115864Y-92249104D02*
X103163483Y-92153866D01*
X103163483Y-92153866D02*
X103211102Y-92106247D01*
X103211102Y-92106247D02*
X103306340Y-92058628D01*
X103306340Y-92058628D02*
X103496816Y-92011009D01*
X103496816Y-92011009D02*
X103592054Y-91963390D01*
X103592054Y-91963390D02*
X103639673Y-91915771D01*
X103639673Y-91915771D02*
X103687292Y-91820533D01*
X103687292Y-91820533D02*
X103687292Y-91725295D01*
X103687292Y-91725295D02*
X103639673Y-91630057D01*
X103639673Y-91630057D02*
X103592054Y-91582438D01*
X103592054Y-91582438D02*
X103496816Y-91534819D01*
X103496816Y-91534819D02*
X103258721Y-91534819D01*
X103258721Y-91534819D02*
X103115864Y-91582438D01*
X102496816Y-91534819D02*
X102306340Y-91534819D01*
X102306340Y-91534819D02*
X102211102Y-91582438D01*
X102211102Y-91582438D02*
X102115864Y-91677676D01*
X102115864Y-91677676D02*
X102068245Y-91868152D01*
X102068245Y-91868152D02*
X102068245Y-92201485D01*
X102068245Y-92201485D02*
X102115864Y-92391961D01*
X102115864Y-92391961D02*
X102211102Y-92487200D01*
X102211102Y-92487200D02*
X102306340Y-92534819D01*
X102306340Y-92534819D02*
X102496816Y-92534819D01*
X102496816Y-92534819D02*
X102592054Y-92487200D01*
X102592054Y-92487200D02*
X102687292Y-92391961D01*
X102687292Y-92391961D02*
X102734911Y-92201485D01*
X102734911Y-92201485D02*
X102734911Y-91868152D01*
X102734911Y-91868152D02*
X102687292Y-91677676D01*
X102687292Y-91677676D02*
X102592054Y-91582438D01*
X102592054Y-91582438D02*
X102496816Y-91534819D01*
X85770112Y-91217200D02*
X85627255Y-91264819D01*
X85627255Y-91264819D02*
X85389160Y-91264819D01*
X85389160Y-91264819D02*
X85293922Y-91217200D01*
X85293922Y-91217200D02*
X85246303Y-91169580D01*
X85246303Y-91169580D02*
X85198684Y-91074342D01*
X85198684Y-91074342D02*
X85198684Y-90979104D01*
X85198684Y-90979104D02*
X85246303Y-90883866D01*
X85246303Y-90883866D02*
X85293922Y-90836247D01*
X85293922Y-90836247D02*
X85389160Y-90788628D01*
X85389160Y-90788628D02*
X85579636Y-90741009D01*
X85579636Y-90741009D02*
X85674874Y-90693390D01*
X85674874Y-90693390D02*
X85722493Y-90645771D01*
X85722493Y-90645771D02*
X85770112Y-90550533D01*
X85770112Y-90550533D02*
X85770112Y-90455295D01*
X85770112Y-90455295D02*
X85722493Y-90360057D01*
X85722493Y-90360057D02*
X85674874Y-90312438D01*
X85674874Y-90312438D02*
X85579636Y-90264819D01*
X85579636Y-90264819D02*
X85341541Y-90264819D01*
X85341541Y-90264819D02*
X85198684Y-90312438D01*
X84198684Y-91169580D02*
X84246303Y-91217200D01*
X84246303Y-91217200D02*
X84389160Y-91264819D01*
X84389160Y-91264819D02*
X84484398Y-91264819D01*
X84484398Y-91264819D02*
X84627255Y-91217200D01*
X84627255Y-91217200D02*
X84722493Y-91121961D01*
X84722493Y-91121961D02*
X84770112Y-91026723D01*
X84770112Y-91026723D02*
X84817731Y-90836247D01*
X84817731Y-90836247D02*
X84817731Y-90693390D01*
X84817731Y-90693390D02*
X84770112Y-90502914D01*
X84770112Y-90502914D02*
X84722493Y-90407676D01*
X84722493Y-90407676D02*
X84627255Y-90312438D01*
X84627255Y-90312438D02*
X84484398Y-90264819D01*
X84484398Y-90264819D02*
X84389160Y-90264819D01*
X84389160Y-90264819D02*
X84246303Y-90312438D01*
X84246303Y-90312438D02*
X84198684Y-90360057D01*
X83293922Y-91264819D02*
X83770112Y-91264819D01*
X83770112Y-91264819D02*
X83770112Y-90264819D01*
X85817731Y-88677200D02*
X85674874Y-88724819D01*
X85674874Y-88724819D02*
X85436779Y-88724819D01*
X85436779Y-88724819D02*
X85341541Y-88677200D01*
X85341541Y-88677200D02*
X85293922Y-88629580D01*
X85293922Y-88629580D02*
X85246303Y-88534342D01*
X85246303Y-88534342D02*
X85246303Y-88439104D01*
X85246303Y-88439104D02*
X85293922Y-88343866D01*
X85293922Y-88343866D02*
X85341541Y-88296247D01*
X85341541Y-88296247D02*
X85436779Y-88248628D01*
X85436779Y-88248628D02*
X85627255Y-88201009D01*
X85627255Y-88201009D02*
X85722493Y-88153390D01*
X85722493Y-88153390D02*
X85770112Y-88105771D01*
X85770112Y-88105771D02*
X85817731Y-88010533D01*
X85817731Y-88010533D02*
X85817731Y-87915295D01*
X85817731Y-87915295D02*
X85770112Y-87820057D01*
X85770112Y-87820057D02*
X85722493Y-87772438D01*
X85722493Y-87772438D02*
X85627255Y-87724819D01*
X85627255Y-87724819D02*
X85389160Y-87724819D01*
X85389160Y-87724819D02*
X85246303Y-87772438D01*
X84817731Y-88724819D02*
X84817731Y-87724819D01*
X84817731Y-87724819D02*
X84579636Y-87724819D01*
X84579636Y-87724819D02*
X84436779Y-87772438D01*
X84436779Y-87772438D02*
X84341541Y-87867676D01*
X84341541Y-87867676D02*
X84293922Y-87962914D01*
X84293922Y-87962914D02*
X84246303Y-88153390D01*
X84246303Y-88153390D02*
X84246303Y-88296247D01*
X84246303Y-88296247D02*
X84293922Y-88486723D01*
X84293922Y-88486723D02*
X84341541Y-88581961D01*
X84341541Y-88581961D02*
X84436779Y-88677200D01*
X84436779Y-88677200D02*
X84579636Y-88724819D01*
X84579636Y-88724819D02*
X84817731Y-88724819D01*
X83865350Y-88439104D02*
X83389160Y-88439104D01*
X83960588Y-88724819D02*
X83627255Y-87724819D01*
X83627255Y-87724819D02*
X83293922Y-88724819D01*
X105353958Y-81374819D02*
X104734911Y-81374819D01*
X104734911Y-81374819D02*
X105068244Y-81755771D01*
X105068244Y-81755771D02*
X104925387Y-81755771D01*
X104925387Y-81755771D02*
X104830149Y-81803390D01*
X104830149Y-81803390D02*
X104782530Y-81851009D01*
X104782530Y-81851009D02*
X104734911Y-81946247D01*
X104734911Y-81946247D02*
X104734911Y-82184342D01*
X104734911Y-82184342D02*
X104782530Y-82279580D01*
X104782530Y-82279580D02*
X104830149Y-82327200D01*
X104830149Y-82327200D02*
X104925387Y-82374819D01*
X104925387Y-82374819D02*
X105211101Y-82374819D01*
X105211101Y-82374819D02*
X105306339Y-82327200D01*
X105306339Y-82327200D02*
X105353958Y-82279580D01*
X104449196Y-81374819D02*
X104115863Y-82374819D01*
X104115863Y-82374819D02*
X103782530Y-81374819D01*
X103544434Y-81374819D02*
X102925387Y-81374819D01*
X102925387Y-81374819D02*
X103258720Y-81755771D01*
X103258720Y-81755771D02*
X103115863Y-81755771D01*
X103115863Y-81755771D02*
X103020625Y-81803390D01*
X103020625Y-81803390D02*
X102973006Y-81851009D01*
X102973006Y-81851009D02*
X102925387Y-81946247D01*
X102925387Y-81946247D02*
X102925387Y-82184342D01*
X102925387Y-82184342D02*
X102973006Y-82279580D01*
X102973006Y-82279580D02*
X103020625Y-82327200D01*
X103020625Y-82327200D02*
X103115863Y-82374819D01*
X103115863Y-82374819D02*
X103401577Y-82374819D01*
X103401577Y-82374819D02*
X103496815Y-82327200D01*
X103496815Y-82327200D02*
X103544434Y-82279580D01*
X105258720Y-100154819D02*
X105258720Y-99154819D01*
X104782530Y-100154819D02*
X104782530Y-99154819D01*
X104782530Y-99154819D02*
X104211102Y-100154819D01*
X104211102Y-100154819D02*
X104211102Y-99154819D01*
X103877768Y-99154819D02*
X103306340Y-99154819D01*
X103592054Y-100154819D02*
X103592054Y-99154819D01*
X103020625Y-99250057D02*
X102973006Y-99202438D01*
X102973006Y-99202438D02*
X102877768Y-99154819D01*
X102877768Y-99154819D02*
X102639673Y-99154819D01*
X102639673Y-99154819D02*
X102544435Y-99202438D01*
X102544435Y-99202438D02*
X102496816Y-99250057D01*
X102496816Y-99250057D02*
X102449197Y-99345295D01*
X102449197Y-99345295D02*
X102449197Y-99440533D01*
X102449197Y-99440533D02*
X102496816Y-99583390D01*
X102496816Y-99583390D02*
X103068244Y-100154819D01*
X103068244Y-100154819D02*
X102449197Y-100154819D01*
D12*
X99011279Y-105357028D02*
X98946993Y-105299885D01*
X98946993Y-105299885D02*
X98825564Y-105242742D01*
X98825564Y-105242742D02*
X98539850Y-105242742D01*
X98539850Y-105242742D02*
X98432707Y-105299885D01*
X98432707Y-105299885D02*
X98382707Y-105357028D01*
X98382707Y-105357028D02*
X98339850Y-105471314D01*
X98339850Y-105471314D02*
X98354136Y-105585600D01*
X98354136Y-105585600D02*
X98432707Y-105757028D01*
X98432707Y-105757028D02*
X99204136Y-106442742D01*
X99204136Y-106442742D02*
X98461279Y-106442742D01*
X97568422Y-105242742D02*
X97454136Y-105242742D01*
X97454136Y-105242742D02*
X97346993Y-105299885D01*
X97346993Y-105299885D02*
X97296993Y-105357028D01*
X97296993Y-105357028D02*
X97254136Y-105471314D01*
X97254136Y-105471314D02*
X97225565Y-105699885D01*
X97225565Y-105699885D02*
X97261279Y-105985600D01*
X97261279Y-105985600D02*
X97346993Y-106214171D01*
X97346993Y-106214171D02*
X97418422Y-106328457D01*
X97418422Y-106328457D02*
X97482707Y-106385600D01*
X97482707Y-106385600D02*
X97604136Y-106442742D01*
X97604136Y-106442742D02*
X97718422Y-106442742D01*
X97718422Y-106442742D02*
X97825565Y-106385600D01*
X97825565Y-106385600D02*
X97875565Y-106328457D01*
X97875565Y-106328457D02*
X97918422Y-106214171D01*
X97918422Y-106214171D02*
X97946993Y-105985600D01*
X97946993Y-105985600D02*
X97911279Y-105699885D01*
X97911279Y-105699885D02*
X97825565Y-105471314D01*
X97825565Y-105471314D02*
X97754136Y-105357028D01*
X97754136Y-105357028D02*
X97689850Y-105299885D01*
X97689850Y-105299885D02*
X97568422Y-105242742D01*
X96789850Y-106328457D02*
X96739850Y-106385600D01*
X96739850Y-106385600D02*
X96804136Y-106442742D01*
X96804136Y-106442742D02*
X96854136Y-106385600D01*
X96854136Y-106385600D02*
X96789850Y-106328457D01*
X96789850Y-106328457D02*
X96804136Y-106442742D01*
X95854136Y-105242742D02*
X95739850Y-105242742D01*
X95739850Y-105242742D02*
X95632707Y-105299885D01*
X95632707Y-105299885D02*
X95582707Y-105357028D01*
X95582707Y-105357028D02*
X95539850Y-105471314D01*
X95539850Y-105471314D02*
X95511279Y-105699885D01*
X95511279Y-105699885D02*
X95546993Y-105985600D01*
X95546993Y-105985600D02*
X95632707Y-106214171D01*
X95632707Y-106214171D02*
X95704136Y-106328457D01*
X95704136Y-106328457D02*
X95768421Y-106385600D01*
X95768421Y-106385600D02*
X95889850Y-106442742D01*
X95889850Y-106442742D02*
X96004136Y-106442742D01*
X96004136Y-106442742D02*
X96111279Y-106385600D01*
X96111279Y-106385600D02*
X96161279Y-106328457D01*
X96161279Y-106328457D02*
X96204136Y-106214171D01*
X96204136Y-106214171D02*
X96232707Y-105985600D01*
X96232707Y-105985600D02*
X96196993Y-105699885D01*
X96196993Y-105699885D02*
X96111279Y-105471314D01*
X96111279Y-105471314D02*
X96039850Y-105357028D01*
X96039850Y-105357028D02*
X95975564Y-105299885D01*
X95975564Y-105299885D02*
X95854136Y-105242742D01*
X95054136Y-105242742D02*
X94254136Y-105242742D01*
X94254136Y-105242742D02*
X94918422Y-106442742D01*
X93932707Y-106328457D02*
X93882707Y-106385600D01*
X93882707Y-106385600D02*
X93946993Y-106442742D01*
X93946993Y-106442742D02*
X93996993Y-106385600D01*
X93996993Y-106385600D02*
X93932707Y-106328457D01*
X93932707Y-106328457D02*
X93946993Y-106442742D01*
X93296993Y-105357028D02*
X93232707Y-105299885D01*
X93232707Y-105299885D02*
X93111278Y-105242742D01*
X93111278Y-105242742D02*
X92825564Y-105242742D01*
X92825564Y-105242742D02*
X92718421Y-105299885D01*
X92718421Y-105299885D02*
X92668421Y-105357028D01*
X92668421Y-105357028D02*
X92625564Y-105471314D01*
X92625564Y-105471314D02*
X92639850Y-105585600D01*
X92639850Y-105585600D02*
X92718421Y-105757028D01*
X92718421Y-105757028D02*
X93489850Y-106442742D01*
X93489850Y-106442742D02*
X92746993Y-106442742D01*
X91854136Y-105242742D02*
X91739850Y-105242742D01*
X91739850Y-105242742D02*
X91632707Y-105299885D01*
X91632707Y-105299885D02*
X91582707Y-105357028D01*
X91582707Y-105357028D02*
X91539850Y-105471314D01*
X91539850Y-105471314D02*
X91511279Y-105699885D01*
X91511279Y-105699885D02*
X91546993Y-105985600D01*
X91546993Y-105985600D02*
X91632707Y-106214171D01*
X91632707Y-106214171D02*
X91704136Y-106328457D01*
X91704136Y-106328457D02*
X91768421Y-106385600D01*
X91768421Y-106385600D02*
X91889850Y-106442742D01*
X91889850Y-106442742D02*
X92004136Y-106442742D01*
X92004136Y-106442742D02*
X92111279Y-106385600D01*
X92111279Y-106385600D02*
X92161279Y-106328457D01*
X92161279Y-106328457D02*
X92204136Y-106214171D01*
X92204136Y-106214171D02*
X92232707Y-105985600D01*
X92232707Y-105985600D02*
X92196993Y-105699885D01*
X92196993Y-105699885D02*
X92111279Y-105471314D01*
X92111279Y-105471314D02*
X92039850Y-105357028D01*
X92039850Y-105357028D02*
X91975564Y-105299885D01*
X91975564Y-105299885D02*
X91854136Y-105242742D01*
X91011279Y-105357028D02*
X90946993Y-105299885D01*
X90946993Y-105299885D02*
X90825564Y-105242742D01*
X90825564Y-105242742D02*
X90539850Y-105242742D01*
X90539850Y-105242742D02*
X90432707Y-105299885D01*
X90432707Y-105299885D02*
X90382707Y-105357028D01*
X90382707Y-105357028D02*
X90339850Y-105471314D01*
X90339850Y-105471314D02*
X90354136Y-105585600D01*
X90354136Y-105585600D02*
X90432707Y-105757028D01*
X90432707Y-105757028D02*
X91204136Y-106442742D01*
X91204136Y-106442742D02*
X90461279Y-106442742D01*
X89332707Y-105642742D02*
X89432707Y-106442742D01*
X89561279Y-105185600D02*
X89954136Y-106042742D01*
X89954136Y-106042742D02*
X89211279Y-106042742D01*
D11*
X104734911Y-83962438D02*
X104830149Y-83914819D01*
X104830149Y-83914819D02*
X104973006Y-83914819D01*
X104973006Y-83914819D02*
X105115863Y-83962438D01*
X105115863Y-83962438D02*
X105211101Y-84057676D01*
X105211101Y-84057676D02*
X105258720Y-84152914D01*
X105258720Y-84152914D02*
X105306339Y-84343390D01*
X105306339Y-84343390D02*
X105306339Y-84486247D01*
X105306339Y-84486247D02*
X105258720Y-84676723D01*
X105258720Y-84676723D02*
X105211101Y-84771961D01*
X105211101Y-84771961D02*
X105115863Y-84867200D01*
X105115863Y-84867200D02*
X104973006Y-84914819D01*
X104973006Y-84914819D02*
X104877768Y-84914819D01*
X104877768Y-84914819D02*
X104734911Y-84867200D01*
X104734911Y-84867200D02*
X104687292Y-84819580D01*
X104687292Y-84819580D02*
X104687292Y-84486247D01*
X104687292Y-84486247D02*
X104877768Y-84486247D01*
X104258720Y-84914819D02*
X104258720Y-83914819D01*
X104258720Y-83914819D02*
X103687292Y-84914819D01*
X103687292Y-84914819D02*
X103687292Y-83914819D01*
X103211101Y-84914819D02*
X103211101Y-83914819D01*
X103211101Y-83914819D02*
X102973006Y-83914819D01*
X102973006Y-83914819D02*
X102830149Y-83962438D01*
X102830149Y-83962438D02*
X102734911Y-84057676D01*
X102734911Y-84057676D02*
X102687292Y-84152914D01*
X102687292Y-84152914D02*
X102639673Y-84343390D01*
X102639673Y-84343390D02*
X102639673Y-84486247D01*
X102639673Y-84486247D02*
X102687292Y-84676723D01*
X102687292Y-84676723D02*
X102734911Y-84771961D01*
X102734911Y-84771961D02*
X102830149Y-84867200D01*
X102830149Y-84867200D02*
X102973006Y-84914819D01*
X102973006Y-84914819D02*
X103211101Y-84914819D01*
X81398333Y-97614819D02*
X81398333Y-98329104D01*
X81398333Y-98329104D02*
X81445952Y-98471961D01*
X81445952Y-98471961D02*
X81541190Y-98567200D01*
X81541190Y-98567200D02*
X81684047Y-98614819D01*
X81684047Y-98614819D02*
X81779285Y-98614819D01*
X80969761Y-97710057D02*
X80922142Y-97662438D01*
X80922142Y-97662438D02*
X80826904Y-97614819D01*
X80826904Y-97614819D02*
X80588809Y-97614819D01*
X80588809Y-97614819D02*
X80493571Y-97662438D01*
X80493571Y-97662438D02*
X80445952Y-97710057D01*
X80445952Y-97710057D02*
X80398333Y-97805295D01*
X80398333Y-97805295D02*
X80398333Y-97900533D01*
X80398333Y-97900533D02*
X80445952Y-98043390D01*
X80445952Y-98043390D02*
X81017380Y-98614819D01*
X81017380Y-98614819D02*
X80398333Y-98614819D01*
X108068333Y-78984819D02*
X108068333Y-79699104D01*
X108068333Y-79699104D02*
X108115952Y-79841961D01*
X108115952Y-79841961D02*
X108211190Y-79937200D01*
X108211190Y-79937200D02*
X108354047Y-79984819D01*
X108354047Y-79984819D02*
X108449285Y-79984819D01*
X107068333Y-79984819D02*
X107639761Y-79984819D01*
X107354047Y-79984819D02*
X107354047Y-78984819D01*
X107354047Y-78984819D02*
X107449285Y-79127676D01*
X107449285Y-79127676D02*
X107544523Y-79222914D01*
X107544523Y-79222914D02*
X107639761Y-79270533D01*
D13*
%TO.C,J2*%
X79735000Y-84340000D02*
X79735000Y-94560000D01*
X79735000Y-97160000D02*
X79735000Y-95830000D01*
X81065000Y-97160000D02*
X79735000Y-97160000D01*
X82395000Y-84340000D02*
X79735000Y-84340000D01*
X82395000Y-84340000D02*
X82395000Y-94560000D01*
X82395000Y-94560000D02*
X79735000Y-94560000D01*
%TO.C,J1*%
X106405000Y-83130000D02*
X109065000Y-83130000D01*
X106405000Y-100970000D02*
X106405000Y-83130000D01*
X106405000Y-100970000D02*
X109065000Y-100970000D01*
X107735000Y-80530000D02*
X109065000Y-80530000D01*
X109065000Y-80530000D02*
X109065000Y-81860000D01*
X109065000Y-100970000D02*
X109065000Y-83130000D01*
%TD*%
M02*
