M48
; DRILL file {KiCad 8.0.2-8.0.2-0~ubuntu20.04.1} date 2024-07-20T17:48:21+0500
; FORMAT={-:-/ absolute / metric / decimal}
; #@! TF.CreationDate,2024-07-20T17:48:21+05:00
; #@! TF.GenerationSoftware,Kicad,Pcbnew,8.0.2-8.0.2-0~ubuntu20.04.1
; #@! TF.FileFunction,Plated,1,2,PTH
FMAT,2
METRIC
; #@! TA.AperFunction,Plated,PTH,ViaDrill
T1C0.300
; #@! TA.AperFunction,Plated,PTH,ComponentDrill
T2C0.500
; #@! TA.AperFunction,Plated,PTH,ComponentDrill
T3C1.000
; #@! TA.AperFunction,Plated,PTH,ComponentDrill
T4C2.700
%
G90
G05
T1
X80.0Y-79.0
X80.0Y-81.0
X80.0Y-100.0
X80.0Y-102.0
X86.25Y-72.5
X86.25Y-108.5
X88.25Y-72.5
X88.25Y-108.5
X88.939Y-92.528
X90.25Y-72.5
X90.25Y-108.5
X90.596Y-89.988
X90.718Y-94.179
X92.242Y-91.067
X92.242Y-93.417
X92.25Y-72.5
X92.25Y-108.5
X93.257Y-87.638
X94.25Y-72.5
X94.25Y-108.5
X95.3Y-88.4
X96.25Y-72.5
X96.25Y-108.5
X96.766Y-89.466
X97.47Y-93.08
X98.25Y-72.5
X98.25Y-108.5
X98.865Y-84.53
X99.67Y-89.08
X100.1Y-95.08
X100.25Y-72.5
X100.25Y-108.5
X100.47Y-88.98
X101.17Y-88.48
X102.25Y-72.5
X102.25Y-108.5
X109.0Y-79.0
X109.0Y-102.0
T2
X79.975Y-75.0
X79.975Y-106.0
X80.568Y-73.568
X80.568Y-76.432
X80.568Y-104.568
X80.568Y-107.432
X82.0Y-72.975
X82.0Y-77.025
X82.0Y-103.975
X82.0Y-108.025
X83.432Y-73.568
X83.432Y-76.432
X83.432Y-104.568
X83.432Y-107.432
X84.025Y-75.0
X84.025Y-106.0
X104.475Y-75.0
X104.475Y-106.0
X105.068Y-73.568
X105.068Y-76.432
X105.068Y-104.568
X105.068Y-107.432
X106.5Y-72.975
X106.5Y-77.025
X106.5Y-103.975
X106.5Y-108.025
X107.932Y-73.568
X107.932Y-76.432
X107.932Y-104.568
X107.932Y-107.432
X108.525Y-75.0
X108.525Y-106.0
T3
X81.065Y-85.67
X81.065Y-88.21
X81.065Y-90.75
X81.065Y-93.29
X81.065Y-95.83
X107.735Y-81.86
X107.735Y-84.4
X107.735Y-86.94
X107.735Y-89.48
X107.735Y-92.02
X107.735Y-94.56
X107.735Y-97.1
X107.735Y-99.64
T4
X82.0Y-75.0
X82.0Y-106.0
X106.5Y-75.0
X106.5Y-106.0
M30
