%TF.GenerationSoftware,KiCad,Pcbnew,8.0.2-8.0.2-0~ubuntu20.04.1*%
%TF.CreationDate,2024-07-20T17:48:19+05:00*%
%TF.ProjectId,AlphaHagkemindt,416c7068-6148-4616-976b-656d696e6474,rev?*%
%TF.SameCoordinates,Original*%
%TF.FileFunction,Legend,Top*%
%TF.FilePolarity,Positive*%
%FSLAX46Y46*%
G04 Gerber Fmt 4.6, Leading zero omitted, Abs format (unit mm)*
G04 Created by KiCad (PCBNEW 8.0.2-8.0.2-0~ubuntu20.04.1) date 2024-07-20 17:48:19*
%MOMM*%
%LPD*%
G01*
G04 APERTURE LIST*
%ADD10C,0.200000*%
%ADD11C,0.150000*%
%ADD12C,0.100000*%
%ADD13C,0.120000*%
%ADD14C,0.000000*%
G04 APERTURE END LIST*
D10*
X86514286Y-104091112D02*
X86514286Y-102591112D01*
X88085715Y-103948255D02*
X88014287Y-104019684D01*
X88014287Y-104019684D02*
X87800001Y-104091112D01*
X87800001Y-104091112D02*
X87657144Y-104091112D01*
X87657144Y-104091112D02*
X87442858Y-104019684D01*
X87442858Y-104019684D02*
X87300001Y-103876826D01*
X87300001Y-103876826D02*
X87228572Y-103733969D01*
X87228572Y-103733969D02*
X87157144Y-103448255D01*
X87157144Y-103448255D02*
X87157144Y-103233969D01*
X87157144Y-103233969D02*
X87228572Y-102948255D01*
X87228572Y-102948255D02*
X87300001Y-102805398D01*
X87300001Y-102805398D02*
X87442858Y-102662541D01*
X87442858Y-102662541D02*
X87657144Y-102591112D01*
X87657144Y-102591112D02*
X87800001Y-102591112D01*
X87800001Y-102591112D02*
X88014287Y-102662541D01*
X88014287Y-102662541D02*
X88085715Y-102733969D01*
X88728572Y-104091112D02*
X88728572Y-102591112D01*
X88728572Y-102591112D02*
X89228572Y-103662541D01*
X89228572Y-103662541D02*
X89728572Y-102591112D01*
X89728572Y-102591112D02*
X89728572Y-104091112D01*
X90442858Y-103519684D02*
X91585716Y-103519684D01*
X92942859Y-103091112D02*
X92942859Y-104091112D01*
X92585716Y-102519684D02*
X92228573Y-103591112D01*
X92228573Y-103591112D02*
X93157144Y-103591112D01*
X93657144Y-102733969D02*
X93728572Y-102662541D01*
X93728572Y-102662541D02*
X93871430Y-102591112D01*
X93871430Y-102591112D02*
X94228572Y-102591112D01*
X94228572Y-102591112D02*
X94371430Y-102662541D01*
X94371430Y-102662541D02*
X94442858Y-102733969D01*
X94442858Y-102733969D02*
X94514287Y-102876826D01*
X94514287Y-102876826D02*
X94514287Y-103019684D01*
X94514287Y-103019684D02*
X94442858Y-103233969D01*
X94442858Y-103233969D02*
X93585715Y-104091112D01*
X93585715Y-104091112D02*
X94514287Y-104091112D01*
X95800001Y-102591112D02*
X95514286Y-102591112D01*
X95514286Y-102591112D02*
X95371429Y-102662541D01*
X95371429Y-102662541D02*
X95300001Y-102733969D01*
X95300001Y-102733969D02*
X95157143Y-102948255D01*
X95157143Y-102948255D02*
X95085715Y-103233969D01*
X95085715Y-103233969D02*
X95085715Y-103805398D01*
X95085715Y-103805398D02*
X95157143Y-103948255D01*
X95157143Y-103948255D02*
X95228572Y-104019684D01*
X95228572Y-104019684D02*
X95371429Y-104091112D01*
X95371429Y-104091112D02*
X95657143Y-104091112D01*
X95657143Y-104091112D02*
X95800001Y-104019684D01*
X95800001Y-104019684D02*
X95871429Y-103948255D01*
X95871429Y-103948255D02*
X95942858Y-103805398D01*
X95942858Y-103805398D02*
X95942858Y-103448255D01*
X95942858Y-103448255D02*
X95871429Y-103305398D01*
X95871429Y-103305398D02*
X95800001Y-103233969D01*
X95800001Y-103233969D02*
X95657143Y-103162541D01*
X95657143Y-103162541D02*
X95371429Y-103162541D01*
X95371429Y-103162541D02*
X95228572Y-103233969D01*
X95228572Y-103233969D02*
X95157143Y-103305398D01*
X95157143Y-103305398D02*
X95085715Y-103448255D01*
X96800000Y-103233969D02*
X96657143Y-103162541D01*
X96657143Y-103162541D02*
X96585714Y-103091112D01*
X96585714Y-103091112D02*
X96514286Y-102948255D01*
X96514286Y-102948255D02*
X96514286Y-102876826D01*
X96514286Y-102876826D02*
X96585714Y-102733969D01*
X96585714Y-102733969D02*
X96657143Y-102662541D01*
X96657143Y-102662541D02*
X96800000Y-102591112D01*
X96800000Y-102591112D02*
X97085714Y-102591112D01*
X97085714Y-102591112D02*
X97228572Y-102662541D01*
X97228572Y-102662541D02*
X97300000Y-102733969D01*
X97300000Y-102733969D02*
X97371429Y-102876826D01*
X97371429Y-102876826D02*
X97371429Y-102948255D01*
X97371429Y-102948255D02*
X97300000Y-103091112D01*
X97300000Y-103091112D02*
X97228572Y-103162541D01*
X97228572Y-103162541D02*
X97085714Y-103233969D01*
X97085714Y-103233969D02*
X96800000Y-103233969D01*
X96800000Y-103233969D02*
X96657143Y-103305398D01*
X96657143Y-103305398D02*
X96585714Y-103376826D01*
X96585714Y-103376826D02*
X96514286Y-103519684D01*
X96514286Y-103519684D02*
X96514286Y-103805398D01*
X96514286Y-103805398D02*
X96585714Y-103948255D01*
X96585714Y-103948255D02*
X96657143Y-104019684D01*
X96657143Y-104019684D02*
X96800000Y-104091112D01*
X96800000Y-104091112D02*
X97085714Y-104091112D01*
X97085714Y-104091112D02*
X97228572Y-104019684D01*
X97228572Y-104019684D02*
X97300000Y-103948255D01*
X97300000Y-103948255D02*
X97371429Y-103805398D01*
X97371429Y-103805398D02*
X97371429Y-103519684D01*
X97371429Y-103519684D02*
X97300000Y-103376826D01*
X97300000Y-103376826D02*
X97228572Y-103305398D01*
X97228572Y-103305398D02*
X97085714Y-103233969D01*
X98228571Y-103233969D02*
X98085714Y-103162541D01*
X98085714Y-103162541D02*
X98014285Y-103091112D01*
X98014285Y-103091112D02*
X97942857Y-102948255D01*
X97942857Y-102948255D02*
X97942857Y-102876826D01*
X97942857Y-102876826D02*
X98014285Y-102733969D01*
X98014285Y-102733969D02*
X98085714Y-102662541D01*
X98085714Y-102662541D02*
X98228571Y-102591112D01*
X98228571Y-102591112D02*
X98514285Y-102591112D01*
X98514285Y-102591112D02*
X98657143Y-102662541D01*
X98657143Y-102662541D02*
X98728571Y-102733969D01*
X98728571Y-102733969D02*
X98800000Y-102876826D01*
X98800000Y-102876826D02*
X98800000Y-102948255D01*
X98800000Y-102948255D02*
X98728571Y-103091112D01*
X98728571Y-103091112D02*
X98657143Y-103162541D01*
X98657143Y-103162541D02*
X98514285Y-103233969D01*
X98514285Y-103233969D02*
X98228571Y-103233969D01*
X98228571Y-103233969D02*
X98085714Y-103305398D01*
X98085714Y-103305398D02*
X98014285Y-103376826D01*
X98014285Y-103376826D02*
X97942857Y-103519684D01*
X97942857Y-103519684D02*
X97942857Y-103805398D01*
X97942857Y-103805398D02*
X98014285Y-103948255D01*
X98014285Y-103948255D02*
X98085714Y-104019684D01*
X98085714Y-104019684D02*
X98228571Y-104091112D01*
X98228571Y-104091112D02*
X98514285Y-104091112D01*
X98514285Y-104091112D02*
X98657143Y-104019684D01*
X98657143Y-104019684D02*
X98728571Y-103948255D01*
X98728571Y-103948255D02*
X98800000Y-103805398D01*
X98800000Y-103805398D02*
X98800000Y-103519684D01*
X98800000Y-103519684D02*
X98728571Y-103376826D01*
X98728571Y-103376826D02*
X98657143Y-103305398D01*
X98657143Y-103305398D02*
X98514285Y-103233969D01*
X99442856Y-103519684D02*
X100585714Y-103519684D01*
X101299999Y-104091112D02*
X101299999Y-102591112D01*
X101299999Y-102591112D02*
X101871428Y-102591112D01*
X101871428Y-102591112D02*
X102014285Y-102662541D01*
X102014285Y-102662541D02*
X102085714Y-102733969D01*
X102085714Y-102733969D02*
X102157142Y-102876826D01*
X102157142Y-102876826D02*
X102157142Y-103091112D01*
X102157142Y-103091112D02*
X102085714Y-103233969D01*
X102085714Y-103233969D02*
X102014285Y-103305398D01*
X102014285Y-103305398D02*
X101871428Y-103376826D01*
X101871428Y-103376826D02*
X101299999Y-103376826D01*
X90657143Y-105720314D02*
X90871429Y-105791742D01*
X90871429Y-105791742D02*
X90942858Y-105863171D01*
X90942858Y-105863171D02*
X91014286Y-106006028D01*
X91014286Y-106006028D02*
X91014286Y-106220314D01*
X91014286Y-106220314D02*
X90942858Y-106363171D01*
X90942858Y-106363171D02*
X90871429Y-106434600D01*
X90871429Y-106434600D02*
X90728572Y-106506028D01*
X90728572Y-106506028D02*
X90157143Y-106506028D01*
X90157143Y-106506028D02*
X90157143Y-105006028D01*
X90157143Y-105006028D02*
X90657143Y-105006028D01*
X90657143Y-105006028D02*
X90800001Y-105077457D01*
X90800001Y-105077457D02*
X90871429Y-105148885D01*
X90871429Y-105148885D02*
X90942858Y-105291742D01*
X90942858Y-105291742D02*
X90942858Y-105434600D01*
X90942858Y-105434600D02*
X90871429Y-105577457D01*
X90871429Y-105577457D02*
X90800001Y-105648885D01*
X90800001Y-105648885D02*
X90657143Y-105720314D01*
X90657143Y-105720314D02*
X90157143Y-105720314D01*
X91657143Y-106506028D02*
X91657143Y-105006028D01*
X91657143Y-105006028D02*
X92157143Y-106077457D01*
X92157143Y-106077457D02*
X92657143Y-105006028D01*
X92657143Y-105006028D02*
X92657143Y-106506028D01*
X93371429Y-106506028D02*
X93371429Y-105006028D01*
X93371429Y-105006028D02*
X93942858Y-105006028D01*
X93942858Y-105006028D02*
X94085715Y-105077457D01*
X94085715Y-105077457D02*
X94157144Y-105148885D01*
X94157144Y-105148885D02*
X94228572Y-105291742D01*
X94228572Y-105291742D02*
X94228572Y-105506028D01*
X94228572Y-105506028D02*
X94157144Y-105648885D01*
X94157144Y-105648885D02*
X94085715Y-105720314D01*
X94085715Y-105720314D02*
X93942858Y-105791742D01*
X93942858Y-105791742D02*
X93371429Y-105791742D01*
X94728572Y-105006028D02*
X95657144Y-105006028D01*
X95657144Y-105006028D02*
X95157144Y-105577457D01*
X95157144Y-105577457D02*
X95371429Y-105577457D01*
X95371429Y-105577457D02*
X95514287Y-105648885D01*
X95514287Y-105648885D02*
X95585715Y-105720314D01*
X95585715Y-105720314D02*
X95657144Y-105863171D01*
X95657144Y-105863171D02*
X95657144Y-106220314D01*
X95657144Y-106220314D02*
X95585715Y-106363171D01*
X95585715Y-106363171D02*
X95514287Y-106434600D01*
X95514287Y-106434600D02*
X95371429Y-106506028D01*
X95371429Y-106506028D02*
X94942858Y-106506028D01*
X94942858Y-106506028D02*
X94800001Y-106434600D01*
X94800001Y-106434600D02*
X94728572Y-106363171D01*
X96514286Y-105648885D02*
X96371429Y-105577457D01*
X96371429Y-105577457D02*
X96300000Y-105506028D01*
X96300000Y-105506028D02*
X96228572Y-105363171D01*
X96228572Y-105363171D02*
X96228572Y-105291742D01*
X96228572Y-105291742D02*
X96300000Y-105148885D01*
X96300000Y-105148885D02*
X96371429Y-105077457D01*
X96371429Y-105077457D02*
X96514286Y-105006028D01*
X96514286Y-105006028D02*
X96800000Y-105006028D01*
X96800000Y-105006028D02*
X96942858Y-105077457D01*
X96942858Y-105077457D02*
X97014286Y-105148885D01*
X97014286Y-105148885D02*
X97085715Y-105291742D01*
X97085715Y-105291742D02*
X97085715Y-105363171D01*
X97085715Y-105363171D02*
X97014286Y-105506028D01*
X97014286Y-105506028D02*
X96942858Y-105577457D01*
X96942858Y-105577457D02*
X96800000Y-105648885D01*
X96800000Y-105648885D02*
X96514286Y-105648885D01*
X96514286Y-105648885D02*
X96371429Y-105720314D01*
X96371429Y-105720314D02*
X96300000Y-105791742D01*
X96300000Y-105791742D02*
X96228572Y-105934600D01*
X96228572Y-105934600D02*
X96228572Y-106220314D01*
X96228572Y-106220314D02*
X96300000Y-106363171D01*
X96300000Y-106363171D02*
X96371429Y-106434600D01*
X96371429Y-106434600D02*
X96514286Y-106506028D01*
X96514286Y-106506028D02*
X96800000Y-106506028D01*
X96800000Y-106506028D02*
X96942858Y-106434600D01*
X96942858Y-106434600D02*
X97014286Y-106363171D01*
X97014286Y-106363171D02*
X97085715Y-106220314D01*
X97085715Y-106220314D02*
X97085715Y-105934600D01*
X97085715Y-105934600D02*
X97014286Y-105791742D01*
X97014286Y-105791742D02*
X96942858Y-105720314D01*
X96942858Y-105720314D02*
X96800000Y-105648885D01*
X97942857Y-105648885D02*
X97800000Y-105577457D01*
X97800000Y-105577457D02*
X97728571Y-105506028D01*
X97728571Y-105506028D02*
X97657143Y-105363171D01*
X97657143Y-105363171D02*
X97657143Y-105291742D01*
X97657143Y-105291742D02*
X97728571Y-105148885D01*
X97728571Y-105148885D02*
X97800000Y-105077457D01*
X97800000Y-105077457D02*
X97942857Y-105006028D01*
X97942857Y-105006028D02*
X98228571Y-105006028D01*
X98228571Y-105006028D02*
X98371429Y-105077457D01*
X98371429Y-105077457D02*
X98442857Y-105148885D01*
X98442857Y-105148885D02*
X98514286Y-105291742D01*
X98514286Y-105291742D02*
X98514286Y-105363171D01*
X98514286Y-105363171D02*
X98442857Y-105506028D01*
X98442857Y-105506028D02*
X98371429Y-105577457D01*
X98371429Y-105577457D02*
X98228571Y-105648885D01*
X98228571Y-105648885D02*
X97942857Y-105648885D01*
X97942857Y-105648885D02*
X97800000Y-105720314D01*
X97800000Y-105720314D02*
X97728571Y-105791742D01*
X97728571Y-105791742D02*
X97657143Y-105934600D01*
X97657143Y-105934600D02*
X97657143Y-106220314D01*
X97657143Y-106220314D02*
X97728571Y-106363171D01*
X97728571Y-106363171D02*
X97800000Y-106434600D01*
X97800000Y-106434600D02*
X97942857Y-106506028D01*
X97942857Y-106506028D02*
X98228571Y-106506028D01*
X98228571Y-106506028D02*
X98371429Y-106434600D01*
X98371429Y-106434600D02*
X98442857Y-106363171D01*
X98442857Y-106363171D02*
X98514286Y-106220314D01*
X98514286Y-106220314D02*
X98514286Y-105934600D01*
X98514286Y-105934600D02*
X98442857Y-105791742D01*
X98442857Y-105791742D02*
X98371429Y-105720314D01*
X98371429Y-105720314D02*
X98228571Y-105648885D01*
D11*
X104287030Y-95017200D02*
X104429887Y-95064819D01*
X104429887Y-95064819D02*
X104667982Y-95064819D01*
X104667982Y-95064819D02*
X104763220Y-95017200D01*
X104763220Y-95017200D02*
X104810839Y-94969580D01*
X104810839Y-94969580D02*
X104858458Y-94874342D01*
X104858458Y-94874342D02*
X104858458Y-94779104D01*
X104858458Y-94779104D02*
X104810839Y-94683866D01*
X104810839Y-94683866D02*
X104763220Y-94636247D01*
X104763220Y-94636247D02*
X104667982Y-94588628D01*
X104667982Y-94588628D02*
X104477506Y-94541009D01*
X104477506Y-94541009D02*
X104382268Y-94493390D01*
X104382268Y-94493390D02*
X104334649Y-94445771D01*
X104334649Y-94445771D02*
X104287030Y-94350533D01*
X104287030Y-94350533D02*
X104287030Y-94255295D01*
X104287030Y-94255295D02*
X104334649Y-94160057D01*
X104334649Y-94160057D02*
X104382268Y-94112438D01*
X104382268Y-94112438D02*
X104477506Y-94064819D01*
X104477506Y-94064819D02*
X104715601Y-94064819D01*
X104715601Y-94064819D02*
X104858458Y-94112438D01*
X105239411Y-95017200D02*
X105382268Y-95064819D01*
X105382268Y-95064819D02*
X105620363Y-95064819D01*
X105620363Y-95064819D02*
X105715601Y-95017200D01*
X105715601Y-95017200D02*
X105763220Y-94969580D01*
X105763220Y-94969580D02*
X105810839Y-94874342D01*
X105810839Y-94874342D02*
X105810839Y-94779104D01*
X105810839Y-94779104D02*
X105763220Y-94683866D01*
X105763220Y-94683866D02*
X105715601Y-94636247D01*
X105715601Y-94636247D02*
X105620363Y-94588628D01*
X105620363Y-94588628D02*
X105429887Y-94541009D01*
X105429887Y-94541009D02*
X105334649Y-94493390D01*
X105334649Y-94493390D02*
X105287030Y-94445771D01*
X105287030Y-94445771D02*
X105239411Y-94350533D01*
X105239411Y-94350533D02*
X105239411Y-94255295D01*
X105239411Y-94255295D02*
X105287030Y-94160057D01*
X105287030Y-94160057D02*
X105334649Y-94112438D01*
X105334649Y-94112438D02*
X105429887Y-94064819D01*
X105429887Y-94064819D02*
X105667982Y-94064819D01*
X105667982Y-94064819D02*
X105810839Y-94112438D01*
X104196554Y-93787200D02*
X105901316Y-93787200D01*
X102620364Y-89984819D02*
X102620364Y-88984819D01*
X102620364Y-88984819D02*
X102953697Y-89699104D01*
X102953697Y-89699104D02*
X103287030Y-88984819D01*
X103287030Y-88984819D02*
X103287030Y-89984819D01*
X103953697Y-88984819D02*
X104144173Y-88984819D01*
X104144173Y-88984819D02*
X104239411Y-89032438D01*
X104239411Y-89032438D02*
X104334649Y-89127676D01*
X104334649Y-89127676D02*
X104382268Y-89318152D01*
X104382268Y-89318152D02*
X104382268Y-89651485D01*
X104382268Y-89651485D02*
X104334649Y-89841961D01*
X104334649Y-89841961D02*
X104239411Y-89937200D01*
X104239411Y-89937200D02*
X104144173Y-89984819D01*
X104144173Y-89984819D02*
X103953697Y-89984819D01*
X103953697Y-89984819D02*
X103858459Y-89937200D01*
X103858459Y-89937200D02*
X103763221Y-89841961D01*
X103763221Y-89841961D02*
X103715602Y-89651485D01*
X103715602Y-89651485D02*
X103715602Y-89318152D01*
X103715602Y-89318152D02*
X103763221Y-89127676D01*
X103763221Y-89127676D02*
X103858459Y-89032438D01*
X103858459Y-89032438D02*
X103953697Y-88984819D01*
X104763221Y-89937200D02*
X104906078Y-89984819D01*
X104906078Y-89984819D02*
X105144173Y-89984819D01*
X105144173Y-89984819D02*
X105239411Y-89937200D01*
X105239411Y-89937200D02*
X105287030Y-89889580D01*
X105287030Y-89889580D02*
X105334649Y-89794342D01*
X105334649Y-89794342D02*
X105334649Y-89699104D01*
X105334649Y-89699104D02*
X105287030Y-89603866D01*
X105287030Y-89603866D02*
X105239411Y-89556247D01*
X105239411Y-89556247D02*
X105144173Y-89508628D01*
X105144173Y-89508628D02*
X104953697Y-89461009D01*
X104953697Y-89461009D02*
X104858459Y-89413390D01*
X104858459Y-89413390D02*
X104810840Y-89365771D01*
X104810840Y-89365771D02*
X104763221Y-89270533D01*
X104763221Y-89270533D02*
X104763221Y-89175295D01*
X104763221Y-89175295D02*
X104810840Y-89080057D01*
X104810840Y-89080057D02*
X104858459Y-89032438D01*
X104858459Y-89032438D02*
X104953697Y-88984819D01*
X104953697Y-88984819D02*
X105191792Y-88984819D01*
X105191792Y-88984819D02*
X105334649Y-89032438D01*
X105763221Y-89984819D02*
X105763221Y-88984819D01*
X103001316Y-100144819D02*
X103001316Y-99144819D01*
X103477506Y-100144819D02*
X103477506Y-99144819D01*
X103477506Y-99144819D02*
X104048934Y-100144819D01*
X104048934Y-100144819D02*
X104048934Y-99144819D01*
X104382268Y-99144819D02*
X104953696Y-99144819D01*
X104667982Y-100144819D02*
X104667982Y-99144819D01*
X105239411Y-99240057D02*
X105287030Y-99192438D01*
X105287030Y-99192438D02*
X105382268Y-99144819D01*
X105382268Y-99144819D02*
X105620363Y-99144819D01*
X105620363Y-99144819D02*
X105715601Y-99192438D01*
X105715601Y-99192438D02*
X105763220Y-99240057D01*
X105763220Y-99240057D02*
X105810839Y-99335295D01*
X105810839Y-99335295D02*
X105810839Y-99430533D01*
X105810839Y-99430533D02*
X105763220Y-99573390D01*
X105763220Y-99573390D02*
X105191792Y-100144819D01*
X105191792Y-100144819D02*
X105810839Y-100144819D01*
X82889160Y-88667200D02*
X83032017Y-88714819D01*
X83032017Y-88714819D02*
X83270112Y-88714819D01*
X83270112Y-88714819D02*
X83365350Y-88667200D01*
X83365350Y-88667200D02*
X83412969Y-88619580D01*
X83412969Y-88619580D02*
X83460588Y-88524342D01*
X83460588Y-88524342D02*
X83460588Y-88429104D01*
X83460588Y-88429104D02*
X83412969Y-88333866D01*
X83412969Y-88333866D02*
X83365350Y-88286247D01*
X83365350Y-88286247D02*
X83270112Y-88238628D01*
X83270112Y-88238628D02*
X83079636Y-88191009D01*
X83079636Y-88191009D02*
X82984398Y-88143390D01*
X82984398Y-88143390D02*
X82936779Y-88095771D01*
X82936779Y-88095771D02*
X82889160Y-88000533D01*
X82889160Y-88000533D02*
X82889160Y-87905295D01*
X82889160Y-87905295D02*
X82936779Y-87810057D01*
X82936779Y-87810057D02*
X82984398Y-87762438D01*
X82984398Y-87762438D02*
X83079636Y-87714819D01*
X83079636Y-87714819D02*
X83317731Y-87714819D01*
X83317731Y-87714819D02*
X83460588Y-87762438D01*
X83889160Y-88714819D02*
X83889160Y-87714819D01*
X83889160Y-87714819D02*
X84127255Y-87714819D01*
X84127255Y-87714819D02*
X84270112Y-87762438D01*
X84270112Y-87762438D02*
X84365350Y-87857676D01*
X84365350Y-87857676D02*
X84412969Y-87952914D01*
X84412969Y-87952914D02*
X84460588Y-88143390D01*
X84460588Y-88143390D02*
X84460588Y-88286247D01*
X84460588Y-88286247D02*
X84412969Y-88476723D01*
X84412969Y-88476723D02*
X84365350Y-88571961D01*
X84365350Y-88571961D02*
X84270112Y-88667200D01*
X84270112Y-88667200D02*
X84127255Y-88714819D01*
X84127255Y-88714819D02*
X83889160Y-88714819D01*
X84841541Y-88429104D02*
X85317731Y-88429104D01*
X84746303Y-88714819D02*
X85079636Y-87714819D01*
X85079636Y-87714819D02*
X85412969Y-88714819D01*
X82936779Y-86174819D02*
X82936779Y-85174819D01*
X83412969Y-86174819D02*
X83412969Y-85174819D01*
X83412969Y-85174819D02*
X83984397Y-86174819D01*
X83984397Y-86174819D02*
X83984397Y-85174819D01*
X84317731Y-85174819D02*
X84889159Y-85174819D01*
X84603445Y-86174819D02*
X84603445Y-85174819D01*
D12*
G36*
X85972226Y-80620642D02*
G01*
X85963790Y-80663324D01*
X85938017Y-80801547D01*
X85920683Y-80900449D01*
X85903448Y-81003141D01*
X85886503Y-81108243D01*
X85870036Y-81214375D01*
X85854237Y-81320154D01*
X85839296Y-81424200D01*
X85825403Y-81525133D01*
X85806943Y-81667671D01*
X85791906Y-81795434D01*
X85780932Y-81903762D01*
X85773412Y-82028457D01*
X85773785Y-82045973D01*
X85816491Y-82137708D01*
X85916050Y-82154487D01*
X85923629Y-82154335D01*
X86021172Y-82147880D01*
X86123656Y-82140321D01*
X86078715Y-82207732D01*
X85980530Y-82224340D01*
X85821284Y-82252184D01*
X85795753Y-82256809D01*
X85690766Y-82275711D01*
X85594138Y-82291263D01*
X85529658Y-82235087D01*
X85530463Y-82214508D01*
X85543824Y-82114431D01*
X85547387Y-82096482D01*
X85560432Y-81999637D01*
X85567681Y-81949019D01*
X85582903Y-81851625D01*
X85583186Y-81848466D01*
X85597069Y-81750509D01*
X85529643Y-81746388D01*
X85421436Y-81742491D01*
X85309561Y-81740412D01*
X85200870Y-81739498D01*
X85101256Y-81739274D01*
X85035158Y-81814352D01*
X84945415Y-81913631D01*
X84865660Y-81997866D01*
X84794439Y-82068139D01*
X84710234Y-82141988D01*
X84617411Y-82206007D01*
X84515360Y-82247944D01*
X84412491Y-82260000D01*
X84363266Y-82257738D01*
X84263991Y-82235087D01*
X84370481Y-82039204D01*
X84396464Y-82047175D01*
X84493579Y-82058743D01*
X84551016Y-82055743D01*
X84652802Y-82029260D01*
X84738608Y-81977548D01*
X84818422Y-81905359D01*
X84842384Y-81881358D01*
X84915386Y-81802222D01*
X84990491Y-81716315D01*
X85056751Y-81638089D01*
X85067976Y-81624480D01*
X85188206Y-81624480D01*
X85613677Y-81624480D01*
X85728471Y-80916175D01*
X85188206Y-81624480D01*
X85067976Y-81624480D01*
X85122174Y-81558768D01*
X85194068Y-81468653D01*
X85678157Y-80841926D01*
X85635021Y-80838803D01*
X85532588Y-80830690D01*
X85445638Y-80821898D01*
X85378715Y-80813593D01*
X85375282Y-80813363D01*
X85275157Y-80808220D01*
X85219849Y-80810706D01*
X85123309Y-80830129D01*
X85035982Y-80875753D01*
X84972288Y-80955773D01*
X84950314Y-81062721D01*
X84954857Y-81125213D01*
X84978041Y-81226605D01*
X85008932Y-81323084D01*
X84801814Y-81434947D01*
X84773139Y-81344407D01*
X84762735Y-81241995D01*
X84765795Y-81187411D01*
X84790942Y-81083279D01*
X84834918Y-80994938D01*
X84900654Y-80906229D01*
X84975226Y-80827759D01*
X84999983Y-80804335D01*
X85086915Y-80734251D01*
X85173918Y-80682679D01*
X85272806Y-80646409D01*
X85370411Y-80634319D01*
X85422259Y-80636449D01*
X85521256Y-80647422D01*
X85624912Y-80662651D01*
X85684273Y-80671700D01*
X85784647Y-80682191D01*
X85860668Y-80662220D01*
X85933147Y-80592798D01*
X85972226Y-80620642D01*
G37*
G36*
X87032728Y-81364117D02*
G01*
X87060554Y-81269276D01*
X87063503Y-81261046D01*
X87088476Y-81162922D01*
X87113817Y-81066629D01*
X87139340Y-80966489D01*
X87167062Y-80866350D01*
X87188486Y-80768672D01*
X87189532Y-80763768D01*
X87298464Y-80671444D01*
X87199805Y-80666186D01*
X87136287Y-80665582D01*
X87037315Y-80667983D01*
X86924157Y-80677855D01*
X86821642Y-80695572D01*
X86711037Y-80727502D01*
X86612076Y-80771435D01*
X86522749Y-80827759D01*
X86446548Y-80892133D01*
X86379065Y-80973365D01*
X86333685Y-81062982D01*
X86309395Y-81162854D01*
X86304396Y-81241507D01*
X86317458Y-81341834D01*
X86326866Y-81380725D01*
X86536915Y-81311360D01*
X86513849Y-81215876D01*
X86506140Y-81119385D01*
X86517963Y-81012812D01*
X86558171Y-80913865D01*
X86624671Y-80839675D01*
X86682484Y-80805289D01*
X86781641Y-80779023D01*
X86880252Y-80770874D01*
X86990718Y-80769141D01*
X86961623Y-80865688D01*
X86933534Y-80967944D01*
X86906706Y-81070842D01*
X86882172Y-81165979D01*
X86850523Y-81288890D01*
X86830983Y-81369490D01*
X86730355Y-81475003D01*
X86803140Y-81480865D01*
X86766897Y-81614866D01*
X86732979Y-81727371D01*
X86699849Y-81820195D01*
X86654241Y-81916485D01*
X86589799Y-81998744D01*
X86492165Y-82052668D01*
X86385529Y-82070148D01*
X86307327Y-82072421D01*
X86205180Y-82070154D01*
X86158827Y-82067048D01*
X86027424Y-82249253D01*
X86126577Y-82259344D01*
X86164689Y-82260000D01*
X86264355Y-82255691D01*
X86363946Y-82237357D01*
X86380111Y-82232156D01*
X86475652Y-82184704D01*
X86556325Y-82125889D01*
X86631948Y-82061425D01*
X86711589Y-81986071D01*
X86752337Y-81944926D01*
X86822563Y-81870601D01*
X86885557Y-81788271D01*
X86932843Y-81689969D01*
X86970671Y-81582704D01*
X87001953Y-81486238D01*
X87121084Y-81478585D01*
X87220711Y-81472362D01*
X87323200Y-81466335D01*
X87422958Y-81461227D01*
X87522383Y-81457466D01*
X87606699Y-81455464D01*
X87582691Y-81550276D01*
X87578367Y-81569769D01*
X87514375Y-81805708D01*
X87489268Y-81905540D01*
X87463008Y-82010277D01*
X87436742Y-82116734D01*
X87416837Y-82212824D01*
X87416189Y-82232156D01*
X87477739Y-82291263D01*
X87556385Y-82277585D01*
X87659862Y-82253441D01*
X87760299Y-82234009D01*
X87876099Y-82212503D01*
X87978925Y-82193565D01*
X88029239Y-82123712D01*
X87926966Y-82132876D01*
X87828068Y-82139223D01*
X87763503Y-82140321D01*
X87677102Y-82089631D01*
X87673621Y-82065094D01*
X87683075Y-81962638D01*
X87705528Y-81861448D01*
X87731877Y-81754442D01*
X87759106Y-81646898D01*
X87793721Y-81511658D01*
X87821339Y-81404200D01*
X87852896Y-81281563D01*
X87884461Y-81171746D01*
X87912136Y-81075557D01*
X87947038Y-80954658D01*
X87974943Y-80858845D01*
X88003085Y-80764330D01*
X88034414Y-80668056D01*
X88065875Y-80604521D01*
X88136156Y-80531798D01*
X88233914Y-80509267D01*
X88331915Y-80521071D01*
X88382414Y-80537599D01*
X88477669Y-80383726D01*
X88379817Y-80364081D01*
X88354082Y-80363698D01*
X88261758Y-80374933D01*
X88167656Y-80426739D01*
X88079980Y-80493755D01*
X87997992Y-80566395D01*
X87928611Y-80635296D01*
X87857017Y-80718850D01*
X87799529Y-80808886D01*
X87760609Y-80900755D01*
X87729797Y-81001660D01*
X87654082Y-81273258D01*
X87629169Y-81359720D01*
X87032728Y-81364117D01*
G37*
G36*
X88185066Y-81782749D02*
G01*
X88431751Y-81777376D01*
X88534085Y-81781375D01*
X88551919Y-81782749D01*
X88609170Y-81696081D01*
X88669642Y-81616458D01*
X88677948Y-81606406D01*
X88653035Y-81606406D01*
X88423447Y-81603475D01*
X88322020Y-81605235D01*
X88294487Y-81606406D01*
X88230434Y-81681022D01*
X88173485Y-81761947D01*
X88160153Y-81782749D01*
X88185066Y-81782749D01*
G37*
G36*
X88851360Y-82260000D02*
G01*
X89027704Y-82260000D01*
X89333007Y-82257557D01*
X89654919Y-82260000D01*
X89769713Y-82260000D01*
X89836636Y-82184773D01*
X89732954Y-82177675D01*
X89631284Y-82166715D01*
X89548429Y-82153998D01*
X89476929Y-82085189D01*
X89475645Y-82069979D01*
X89488314Y-81969440D01*
X89492254Y-81952742D01*
X89516531Y-81854656D01*
X89538558Y-81756481D01*
X89562379Y-81648079D01*
X89573831Y-81595659D01*
X89604878Y-81458520D01*
X89633543Y-81332762D01*
X89659969Y-81217812D01*
X89684298Y-81113097D01*
X89713721Y-80988410D01*
X89740006Y-80879546D01*
X89768967Y-80763648D01*
X89794213Y-80667704D01*
X89803419Y-80634319D01*
X89714092Y-80681975D01*
X89624166Y-80728943D01*
X89526692Y-80779540D01*
X89514724Y-80785750D01*
X89420747Y-80830629D01*
X89322758Y-80875327D01*
X89226987Y-80918645D01*
X89144940Y-80955743D01*
X89228960Y-80997752D01*
X89321142Y-80964708D01*
X89380390Y-80942065D01*
X89464410Y-80908360D01*
X89542568Y-80880516D01*
X89276831Y-82022595D01*
X89248303Y-82116464D01*
X89231891Y-82134459D01*
X89129609Y-82159513D01*
X89078018Y-82165233D01*
X88991067Y-82176468D01*
X88932449Y-82184773D01*
X88851360Y-82260000D01*
G37*
D11*
X82889160Y-91207200D02*
X83032017Y-91254819D01*
X83032017Y-91254819D02*
X83270112Y-91254819D01*
X83270112Y-91254819D02*
X83365350Y-91207200D01*
X83365350Y-91207200D02*
X83412969Y-91159580D01*
X83412969Y-91159580D02*
X83460588Y-91064342D01*
X83460588Y-91064342D02*
X83460588Y-90969104D01*
X83460588Y-90969104D02*
X83412969Y-90873866D01*
X83412969Y-90873866D02*
X83365350Y-90826247D01*
X83365350Y-90826247D02*
X83270112Y-90778628D01*
X83270112Y-90778628D02*
X83079636Y-90731009D01*
X83079636Y-90731009D02*
X82984398Y-90683390D01*
X82984398Y-90683390D02*
X82936779Y-90635771D01*
X82936779Y-90635771D02*
X82889160Y-90540533D01*
X82889160Y-90540533D02*
X82889160Y-90445295D01*
X82889160Y-90445295D02*
X82936779Y-90350057D01*
X82936779Y-90350057D02*
X82984398Y-90302438D01*
X82984398Y-90302438D02*
X83079636Y-90254819D01*
X83079636Y-90254819D02*
X83317731Y-90254819D01*
X83317731Y-90254819D02*
X83460588Y-90302438D01*
X84460588Y-91159580D02*
X84412969Y-91207200D01*
X84412969Y-91207200D02*
X84270112Y-91254819D01*
X84270112Y-91254819D02*
X84174874Y-91254819D01*
X84174874Y-91254819D02*
X84032017Y-91207200D01*
X84032017Y-91207200D02*
X83936779Y-91111961D01*
X83936779Y-91111961D02*
X83889160Y-91016723D01*
X83889160Y-91016723D02*
X83841541Y-90826247D01*
X83841541Y-90826247D02*
X83841541Y-90683390D01*
X83841541Y-90683390D02*
X83889160Y-90492914D01*
X83889160Y-90492914D02*
X83936779Y-90397676D01*
X83936779Y-90397676D02*
X84032017Y-90302438D01*
X84032017Y-90302438D02*
X84174874Y-90254819D01*
X84174874Y-90254819D02*
X84270112Y-90254819D01*
X84270112Y-90254819D02*
X84412969Y-90302438D01*
X84412969Y-90302438D02*
X84460588Y-90350057D01*
X85365350Y-91254819D02*
X84889160Y-91254819D01*
X84889160Y-91254819D02*
X84889160Y-90254819D01*
X83460588Y-92842438D02*
X83365350Y-92794819D01*
X83365350Y-92794819D02*
X83222493Y-92794819D01*
X83222493Y-92794819D02*
X83079636Y-92842438D01*
X83079636Y-92842438D02*
X82984398Y-92937676D01*
X82984398Y-92937676D02*
X82936779Y-93032914D01*
X82936779Y-93032914D02*
X82889160Y-93223390D01*
X82889160Y-93223390D02*
X82889160Y-93366247D01*
X82889160Y-93366247D02*
X82936779Y-93556723D01*
X82936779Y-93556723D02*
X82984398Y-93651961D01*
X82984398Y-93651961D02*
X83079636Y-93747200D01*
X83079636Y-93747200D02*
X83222493Y-93794819D01*
X83222493Y-93794819D02*
X83317731Y-93794819D01*
X83317731Y-93794819D02*
X83460588Y-93747200D01*
X83460588Y-93747200D02*
X83508207Y-93699580D01*
X83508207Y-93699580D02*
X83508207Y-93366247D01*
X83508207Y-93366247D02*
X83317731Y-93366247D01*
X83936779Y-93794819D02*
X83936779Y-92794819D01*
X83936779Y-92794819D02*
X84508207Y-93794819D01*
X84508207Y-93794819D02*
X84508207Y-92794819D01*
X84984398Y-93794819D02*
X84984398Y-92794819D01*
X84984398Y-92794819D02*
X85222493Y-92794819D01*
X85222493Y-92794819D02*
X85365350Y-92842438D01*
X85365350Y-92842438D02*
X85460588Y-92937676D01*
X85460588Y-92937676D02*
X85508207Y-93032914D01*
X85508207Y-93032914D02*
X85555826Y-93223390D01*
X85555826Y-93223390D02*
X85555826Y-93366247D01*
X85555826Y-93366247D02*
X85508207Y-93556723D01*
X85508207Y-93556723D02*
X85460588Y-93651961D01*
X85460588Y-93651961D02*
X85365350Y-93747200D01*
X85365350Y-93747200D02*
X85222493Y-93794819D01*
X85222493Y-93794819D02*
X84984398Y-93794819D01*
X103001316Y-97604819D02*
X103001316Y-96604819D01*
X103477506Y-97604819D02*
X103477506Y-96604819D01*
X103477506Y-96604819D02*
X104048934Y-97604819D01*
X104048934Y-97604819D02*
X104048934Y-96604819D01*
X104382268Y-96604819D02*
X104953696Y-96604819D01*
X104667982Y-97604819D02*
X104667982Y-96604819D01*
X105810839Y-97604819D02*
X105239411Y-97604819D01*
X105525125Y-97604819D02*
X105525125Y-96604819D01*
X105525125Y-96604819D02*
X105429887Y-96747676D01*
X105429887Y-96747676D02*
X105334649Y-96842914D01*
X105334649Y-96842914D02*
X105239411Y-96890533D01*
X103715601Y-83952438D02*
X103620363Y-83904819D01*
X103620363Y-83904819D02*
X103477506Y-83904819D01*
X103477506Y-83904819D02*
X103334649Y-83952438D01*
X103334649Y-83952438D02*
X103239411Y-84047676D01*
X103239411Y-84047676D02*
X103191792Y-84142914D01*
X103191792Y-84142914D02*
X103144173Y-84333390D01*
X103144173Y-84333390D02*
X103144173Y-84476247D01*
X103144173Y-84476247D02*
X103191792Y-84666723D01*
X103191792Y-84666723D02*
X103239411Y-84761961D01*
X103239411Y-84761961D02*
X103334649Y-84857200D01*
X103334649Y-84857200D02*
X103477506Y-84904819D01*
X103477506Y-84904819D02*
X103572744Y-84904819D01*
X103572744Y-84904819D02*
X103715601Y-84857200D01*
X103715601Y-84857200D02*
X103763220Y-84809580D01*
X103763220Y-84809580D02*
X103763220Y-84476247D01*
X103763220Y-84476247D02*
X103572744Y-84476247D01*
X104191792Y-84904819D02*
X104191792Y-83904819D01*
X104191792Y-83904819D02*
X104763220Y-84904819D01*
X104763220Y-84904819D02*
X104763220Y-83904819D01*
X105239411Y-84904819D02*
X105239411Y-83904819D01*
X105239411Y-83904819D02*
X105477506Y-83904819D01*
X105477506Y-83904819D02*
X105620363Y-83952438D01*
X105620363Y-83952438D02*
X105715601Y-84047676D01*
X105715601Y-84047676D02*
X105763220Y-84142914D01*
X105763220Y-84142914D02*
X105810839Y-84333390D01*
X105810839Y-84333390D02*
X105810839Y-84476247D01*
X105810839Y-84476247D02*
X105763220Y-84666723D01*
X105763220Y-84666723D02*
X105715601Y-84761961D01*
X105715601Y-84761961D02*
X105620363Y-84857200D01*
X105620363Y-84857200D02*
X105477506Y-84904819D01*
X105477506Y-84904819D02*
X105239411Y-84904819D01*
X82841541Y-95334819D02*
X83460588Y-95334819D01*
X83460588Y-95334819D02*
X83127255Y-95715771D01*
X83127255Y-95715771D02*
X83270112Y-95715771D01*
X83270112Y-95715771D02*
X83365350Y-95763390D01*
X83365350Y-95763390D02*
X83412969Y-95811009D01*
X83412969Y-95811009D02*
X83460588Y-95906247D01*
X83460588Y-95906247D02*
X83460588Y-96144342D01*
X83460588Y-96144342D02*
X83412969Y-96239580D01*
X83412969Y-96239580D02*
X83365350Y-96287200D01*
X83365350Y-96287200D02*
X83270112Y-96334819D01*
X83270112Y-96334819D02*
X82984398Y-96334819D01*
X82984398Y-96334819D02*
X82889160Y-96287200D01*
X82889160Y-96287200D02*
X82841541Y-96239580D01*
X83746303Y-95334819D02*
X84079636Y-96334819D01*
X84079636Y-96334819D02*
X84412969Y-95334819D01*
X84651065Y-95334819D02*
X85270112Y-95334819D01*
X85270112Y-95334819D02*
X84936779Y-95715771D01*
X84936779Y-95715771D02*
X85079636Y-95715771D01*
X85079636Y-95715771D02*
X85174874Y-95763390D01*
X85174874Y-95763390D02*
X85222493Y-95811009D01*
X85222493Y-95811009D02*
X85270112Y-95906247D01*
X85270112Y-95906247D02*
X85270112Y-96144342D01*
X85270112Y-96144342D02*
X85222493Y-96239580D01*
X85222493Y-96239580D02*
X85174874Y-96287200D01*
X85174874Y-96287200D02*
X85079636Y-96334819D01*
X85079636Y-96334819D02*
X84793922Y-96334819D01*
X84793922Y-96334819D02*
X84698684Y-96287200D01*
X84698684Y-96287200D02*
X84651065Y-96239580D01*
X102620364Y-92524819D02*
X102620364Y-91524819D01*
X102620364Y-91524819D02*
X102953697Y-92239104D01*
X102953697Y-92239104D02*
X103287030Y-91524819D01*
X103287030Y-91524819D02*
X103287030Y-92524819D01*
X103763221Y-92524819D02*
X103763221Y-91524819D01*
X104191792Y-92477200D02*
X104334649Y-92524819D01*
X104334649Y-92524819D02*
X104572744Y-92524819D01*
X104572744Y-92524819D02*
X104667982Y-92477200D01*
X104667982Y-92477200D02*
X104715601Y-92429580D01*
X104715601Y-92429580D02*
X104763220Y-92334342D01*
X104763220Y-92334342D02*
X104763220Y-92239104D01*
X104763220Y-92239104D02*
X104715601Y-92143866D01*
X104715601Y-92143866D02*
X104667982Y-92096247D01*
X104667982Y-92096247D02*
X104572744Y-92048628D01*
X104572744Y-92048628D02*
X104382268Y-92001009D01*
X104382268Y-92001009D02*
X104287030Y-91953390D01*
X104287030Y-91953390D02*
X104239411Y-91905771D01*
X104239411Y-91905771D02*
X104191792Y-91810533D01*
X104191792Y-91810533D02*
X104191792Y-91715295D01*
X104191792Y-91715295D02*
X104239411Y-91620057D01*
X104239411Y-91620057D02*
X104287030Y-91572438D01*
X104287030Y-91572438D02*
X104382268Y-91524819D01*
X104382268Y-91524819D02*
X104620363Y-91524819D01*
X104620363Y-91524819D02*
X104763220Y-91572438D01*
X105382268Y-91524819D02*
X105572744Y-91524819D01*
X105572744Y-91524819D02*
X105667982Y-91572438D01*
X105667982Y-91572438D02*
X105763220Y-91667676D01*
X105763220Y-91667676D02*
X105810839Y-91858152D01*
X105810839Y-91858152D02*
X105810839Y-92191485D01*
X105810839Y-92191485D02*
X105763220Y-92381961D01*
X105763220Y-92381961D02*
X105667982Y-92477200D01*
X105667982Y-92477200D02*
X105572744Y-92524819D01*
X105572744Y-92524819D02*
X105382268Y-92524819D01*
X105382268Y-92524819D02*
X105287030Y-92477200D01*
X105287030Y-92477200D02*
X105191792Y-92381961D01*
X105191792Y-92381961D02*
X105144173Y-92191485D01*
X105144173Y-92191485D02*
X105144173Y-91858152D01*
X105144173Y-91858152D02*
X105191792Y-91667676D01*
X105191792Y-91667676D02*
X105287030Y-91572438D01*
X105287030Y-91572438D02*
X105382268Y-91524819D01*
X103382268Y-81364819D02*
X104001315Y-81364819D01*
X104001315Y-81364819D02*
X103667982Y-81745771D01*
X103667982Y-81745771D02*
X103810839Y-81745771D01*
X103810839Y-81745771D02*
X103906077Y-81793390D01*
X103906077Y-81793390D02*
X103953696Y-81841009D01*
X103953696Y-81841009D02*
X104001315Y-81936247D01*
X104001315Y-81936247D02*
X104001315Y-82174342D01*
X104001315Y-82174342D02*
X103953696Y-82269580D01*
X103953696Y-82269580D02*
X103906077Y-82317200D01*
X103906077Y-82317200D02*
X103810839Y-82364819D01*
X103810839Y-82364819D02*
X103525125Y-82364819D01*
X103525125Y-82364819D02*
X103429887Y-82317200D01*
X103429887Y-82317200D02*
X103382268Y-82269580D01*
X104287030Y-81364819D02*
X104620363Y-82364819D01*
X104620363Y-82364819D02*
X104953696Y-81364819D01*
X105191792Y-81364819D02*
X105810839Y-81364819D01*
X105810839Y-81364819D02*
X105477506Y-81745771D01*
X105477506Y-81745771D02*
X105620363Y-81745771D01*
X105620363Y-81745771D02*
X105715601Y-81793390D01*
X105715601Y-81793390D02*
X105763220Y-81841009D01*
X105763220Y-81841009D02*
X105810839Y-81936247D01*
X105810839Y-81936247D02*
X105810839Y-82174342D01*
X105810839Y-82174342D02*
X105763220Y-82269580D01*
X105763220Y-82269580D02*
X105715601Y-82317200D01*
X105715601Y-82317200D02*
X105620363Y-82364819D01*
X105620363Y-82364819D02*
X105334649Y-82364819D01*
X105334649Y-82364819D02*
X105239411Y-82317200D01*
X105239411Y-82317200D02*
X105191792Y-82269580D01*
X103239411Y-87397200D02*
X103382268Y-87444819D01*
X103382268Y-87444819D02*
X103620363Y-87444819D01*
X103620363Y-87444819D02*
X103715601Y-87397200D01*
X103715601Y-87397200D02*
X103763220Y-87349580D01*
X103763220Y-87349580D02*
X103810839Y-87254342D01*
X103810839Y-87254342D02*
X103810839Y-87159104D01*
X103810839Y-87159104D02*
X103763220Y-87063866D01*
X103763220Y-87063866D02*
X103715601Y-87016247D01*
X103715601Y-87016247D02*
X103620363Y-86968628D01*
X103620363Y-86968628D02*
X103429887Y-86921009D01*
X103429887Y-86921009D02*
X103334649Y-86873390D01*
X103334649Y-86873390D02*
X103287030Y-86825771D01*
X103287030Y-86825771D02*
X103239411Y-86730533D01*
X103239411Y-86730533D02*
X103239411Y-86635295D01*
X103239411Y-86635295D02*
X103287030Y-86540057D01*
X103287030Y-86540057D02*
X103334649Y-86492438D01*
X103334649Y-86492438D02*
X103429887Y-86444819D01*
X103429887Y-86444819D02*
X103667982Y-86444819D01*
X103667982Y-86444819D02*
X103810839Y-86492438D01*
X104810839Y-87349580D02*
X104763220Y-87397200D01*
X104763220Y-87397200D02*
X104620363Y-87444819D01*
X104620363Y-87444819D02*
X104525125Y-87444819D01*
X104525125Y-87444819D02*
X104382268Y-87397200D01*
X104382268Y-87397200D02*
X104287030Y-87301961D01*
X104287030Y-87301961D02*
X104239411Y-87206723D01*
X104239411Y-87206723D02*
X104191792Y-87016247D01*
X104191792Y-87016247D02*
X104191792Y-86873390D01*
X104191792Y-86873390D02*
X104239411Y-86682914D01*
X104239411Y-86682914D02*
X104287030Y-86587676D01*
X104287030Y-86587676D02*
X104382268Y-86492438D01*
X104382268Y-86492438D02*
X104525125Y-86444819D01*
X104525125Y-86444819D02*
X104620363Y-86444819D01*
X104620363Y-86444819D02*
X104763220Y-86492438D01*
X104763220Y-86492438D02*
X104810839Y-86540057D01*
X105239411Y-87444819D02*
X105239411Y-86444819D01*
X105810839Y-87444819D02*
X105382268Y-86873390D01*
X105810839Y-86444819D02*
X105239411Y-87016247D01*
X87947333Y-88855319D02*
X87614000Y-88379128D01*
X87375905Y-88855319D02*
X87375905Y-87855319D01*
X87375905Y-87855319D02*
X87756857Y-87855319D01*
X87756857Y-87855319D02*
X87852095Y-87902938D01*
X87852095Y-87902938D02*
X87899714Y-87950557D01*
X87899714Y-87950557D02*
X87947333Y-88045795D01*
X87947333Y-88045795D02*
X87947333Y-88188652D01*
X87947333Y-88188652D02*
X87899714Y-88283890D01*
X87899714Y-88283890D02*
X87852095Y-88331509D01*
X87852095Y-88331509D02*
X87756857Y-88379128D01*
X87756857Y-88379128D02*
X87375905Y-88379128D01*
X88804476Y-88188652D02*
X88804476Y-88855319D01*
X88566381Y-87807700D02*
X88328286Y-88521985D01*
X88328286Y-88521985D02*
X88947333Y-88521985D01*
X92432095Y-87982319D02*
X92432095Y-88791842D01*
X92432095Y-88791842D02*
X92479714Y-88887080D01*
X92479714Y-88887080D02*
X92527333Y-88934700D01*
X92527333Y-88934700D02*
X92622571Y-88982319D01*
X92622571Y-88982319D02*
X92813047Y-88982319D01*
X92813047Y-88982319D02*
X92908285Y-88934700D01*
X92908285Y-88934700D02*
X92955904Y-88887080D01*
X92955904Y-88887080D02*
X93003523Y-88791842D01*
X93003523Y-88791842D02*
X93003523Y-87982319D01*
X93432095Y-88077557D02*
X93479714Y-88029938D01*
X93479714Y-88029938D02*
X93574952Y-87982319D01*
X93574952Y-87982319D02*
X93813047Y-87982319D01*
X93813047Y-87982319D02*
X93908285Y-88029938D01*
X93908285Y-88029938D02*
X93955904Y-88077557D01*
X93955904Y-88077557D02*
X94003523Y-88172795D01*
X94003523Y-88172795D02*
X94003523Y-88268033D01*
X94003523Y-88268033D02*
X93955904Y-88410890D01*
X93955904Y-88410890D02*
X93384476Y-88982319D01*
X93384476Y-88982319D02*
X94003523Y-88982319D01*
X96003095Y-88284819D02*
X96003095Y-89094342D01*
X96003095Y-89094342D02*
X96050714Y-89189580D01*
X96050714Y-89189580D02*
X96098333Y-89237200D01*
X96098333Y-89237200D02*
X96193571Y-89284819D01*
X96193571Y-89284819D02*
X96384047Y-89284819D01*
X96384047Y-89284819D02*
X96479285Y-89237200D01*
X96479285Y-89237200D02*
X96526904Y-89189580D01*
X96526904Y-89189580D02*
X96574523Y-89094342D01*
X96574523Y-89094342D02*
X96574523Y-88284819D01*
X97574523Y-89284819D02*
X97003095Y-89284819D01*
X97288809Y-89284819D02*
X97288809Y-88284819D01*
X97288809Y-88284819D02*
X97193571Y-88427676D01*
X97193571Y-88427676D02*
X97098333Y-88522914D01*
X97098333Y-88522914D02*
X97003095Y-88570533D01*
X98731666Y-87984819D02*
X98731666Y-88699104D01*
X98731666Y-88699104D02*
X98684047Y-88841961D01*
X98684047Y-88841961D02*
X98588809Y-88937200D01*
X98588809Y-88937200D02*
X98445952Y-88984819D01*
X98445952Y-88984819D02*
X98350714Y-88984819D01*
X99207857Y-88984819D02*
X99207857Y-87984819D01*
X99207857Y-87984819D02*
X99588809Y-87984819D01*
X99588809Y-87984819D02*
X99684047Y-88032438D01*
X99684047Y-88032438D02*
X99731666Y-88080057D01*
X99731666Y-88080057D02*
X99779285Y-88175295D01*
X99779285Y-88175295D02*
X99779285Y-88318152D01*
X99779285Y-88318152D02*
X99731666Y-88413390D01*
X99731666Y-88413390D02*
X99684047Y-88461009D01*
X99684047Y-88461009D02*
X99588809Y-88508628D01*
X99588809Y-88508628D02*
X99207857Y-88508628D01*
X100731666Y-88984819D02*
X100160238Y-88984819D01*
X100445952Y-88984819D02*
X100445952Y-87984819D01*
X100445952Y-87984819D02*
X100350714Y-88127676D01*
X100350714Y-88127676D02*
X100255476Y-88222914D01*
X100255476Y-88222914D02*
X100160238Y-88270533D01*
X100525333Y-80536319D02*
X100192000Y-80060128D01*
X99953905Y-80536319D02*
X99953905Y-79536319D01*
X99953905Y-79536319D02*
X100334857Y-79536319D01*
X100334857Y-79536319D02*
X100430095Y-79583938D01*
X100430095Y-79583938D02*
X100477714Y-79631557D01*
X100477714Y-79631557D02*
X100525333Y-79726795D01*
X100525333Y-79726795D02*
X100525333Y-79869652D01*
X100525333Y-79869652D02*
X100477714Y-79964890D01*
X100477714Y-79964890D02*
X100430095Y-80012509D01*
X100430095Y-80012509D02*
X100334857Y-80060128D01*
X100334857Y-80060128D02*
X99953905Y-80060128D01*
X101477714Y-80536319D02*
X100906286Y-80536319D01*
X101192000Y-80536319D02*
X101192000Y-79536319D01*
X101192000Y-79536319D02*
X101096762Y-79679176D01*
X101096762Y-79679176D02*
X101001524Y-79774414D01*
X101001524Y-79774414D02*
X100906286Y-79822033D01*
X90360333Y-88855319D02*
X90027000Y-88379128D01*
X89788905Y-88855319D02*
X89788905Y-87855319D01*
X89788905Y-87855319D02*
X90169857Y-87855319D01*
X90169857Y-87855319D02*
X90265095Y-87902938D01*
X90265095Y-87902938D02*
X90312714Y-87950557D01*
X90312714Y-87950557D02*
X90360333Y-88045795D01*
X90360333Y-88045795D02*
X90360333Y-88188652D01*
X90360333Y-88188652D02*
X90312714Y-88283890D01*
X90312714Y-88283890D02*
X90265095Y-88331509D01*
X90265095Y-88331509D02*
X90169857Y-88379128D01*
X90169857Y-88379128D02*
X89788905Y-88379128D01*
X91217476Y-87855319D02*
X91027000Y-87855319D01*
X91027000Y-87855319D02*
X90931762Y-87902938D01*
X90931762Y-87902938D02*
X90884143Y-87950557D01*
X90884143Y-87950557D02*
X90788905Y-88093414D01*
X90788905Y-88093414D02*
X90741286Y-88283890D01*
X90741286Y-88283890D02*
X90741286Y-88664842D01*
X90741286Y-88664842D02*
X90788905Y-88760080D01*
X90788905Y-88760080D02*
X90836524Y-88807700D01*
X90836524Y-88807700D02*
X90931762Y-88855319D01*
X90931762Y-88855319D02*
X91122238Y-88855319D01*
X91122238Y-88855319D02*
X91217476Y-88807700D01*
X91217476Y-88807700D02*
X91265095Y-88760080D01*
X91265095Y-88760080D02*
X91312714Y-88664842D01*
X91312714Y-88664842D02*
X91312714Y-88426747D01*
X91312714Y-88426747D02*
X91265095Y-88331509D01*
X91265095Y-88331509D02*
X91217476Y-88283890D01*
X91217476Y-88283890D02*
X91122238Y-88236271D01*
X91122238Y-88236271D02*
X90931762Y-88236271D01*
X90931762Y-88236271D02*
X90836524Y-88283890D01*
X90836524Y-88283890D02*
X90788905Y-88331509D01*
X90788905Y-88331509D02*
X90741286Y-88426747D01*
X96733333Y-96439580D02*
X96685714Y-96487200D01*
X96685714Y-96487200D02*
X96542857Y-96534819D01*
X96542857Y-96534819D02*
X96447619Y-96534819D01*
X96447619Y-96534819D02*
X96304762Y-96487200D01*
X96304762Y-96487200D02*
X96209524Y-96391961D01*
X96209524Y-96391961D02*
X96161905Y-96296723D01*
X96161905Y-96296723D02*
X96114286Y-96106247D01*
X96114286Y-96106247D02*
X96114286Y-95963390D01*
X96114286Y-95963390D02*
X96161905Y-95772914D01*
X96161905Y-95772914D02*
X96209524Y-95677676D01*
X96209524Y-95677676D02*
X96304762Y-95582438D01*
X96304762Y-95582438D02*
X96447619Y-95534819D01*
X96447619Y-95534819D02*
X96542857Y-95534819D01*
X96542857Y-95534819D02*
X96685714Y-95582438D01*
X96685714Y-95582438D02*
X96733333Y-95630057D01*
X97114286Y-95630057D02*
X97161905Y-95582438D01*
X97161905Y-95582438D02*
X97257143Y-95534819D01*
X97257143Y-95534819D02*
X97495238Y-95534819D01*
X97495238Y-95534819D02*
X97590476Y-95582438D01*
X97590476Y-95582438D02*
X97638095Y-95630057D01*
X97638095Y-95630057D02*
X97685714Y-95725295D01*
X97685714Y-95725295D02*
X97685714Y-95820533D01*
X97685714Y-95820533D02*
X97638095Y-95963390D01*
X97638095Y-95963390D02*
X97066667Y-96534819D01*
X97066667Y-96534819D02*
X97685714Y-96534819D01*
X86709166Y-96173819D02*
X86709166Y-96888104D01*
X86709166Y-96888104D02*
X86661547Y-97030961D01*
X86661547Y-97030961D02*
X86566309Y-97126200D01*
X86566309Y-97126200D02*
X86423452Y-97173819D01*
X86423452Y-97173819D02*
X86328214Y-97173819D01*
X87185357Y-97173819D02*
X87185357Y-96173819D01*
X87185357Y-96173819D02*
X87566309Y-96173819D01*
X87566309Y-96173819D02*
X87661547Y-96221438D01*
X87661547Y-96221438D02*
X87709166Y-96269057D01*
X87709166Y-96269057D02*
X87756785Y-96364295D01*
X87756785Y-96364295D02*
X87756785Y-96507152D01*
X87756785Y-96507152D02*
X87709166Y-96602390D01*
X87709166Y-96602390D02*
X87661547Y-96650009D01*
X87661547Y-96650009D02*
X87566309Y-96697628D01*
X87566309Y-96697628D02*
X87185357Y-96697628D01*
X88090119Y-96173819D02*
X88709166Y-96173819D01*
X88709166Y-96173819D02*
X88375833Y-96554771D01*
X88375833Y-96554771D02*
X88518690Y-96554771D01*
X88518690Y-96554771D02*
X88613928Y-96602390D01*
X88613928Y-96602390D02*
X88661547Y-96650009D01*
X88661547Y-96650009D02*
X88709166Y-96745247D01*
X88709166Y-96745247D02*
X88709166Y-96983342D01*
X88709166Y-96983342D02*
X88661547Y-97078580D01*
X88661547Y-97078580D02*
X88613928Y-97126200D01*
X88613928Y-97126200D02*
X88518690Y-97173819D01*
X88518690Y-97173819D02*
X88232976Y-97173819D01*
X88232976Y-97173819D02*
X88137738Y-97126200D01*
X88137738Y-97126200D02*
X88090119Y-97078580D01*
X95759580Y-90366666D02*
X95807200Y-90414285D01*
X95807200Y-90414285D02*
X95854819Y-90557142D01*
X95854819Y-90557142D02*
X95854819Y-90652380D01*
X95854819Y-90652380D02*
X95807200Y-90795237D01*
X95807200Y-90795237D02*
X95711961Y-90890475D01*
X95711961Y-90890475D02*
X95616723Y-90938094D01*
X95616723Y-90938094D02*
X95426247Y-90985713D01*
X95426247Y-90985713D02*
X95283390Y-90985713D01*
X95283390Y-90985713D02*
X95092914Y-90938094D01*
X95092914Y-90938094D02*
X94997676Y-90890475D01*
X94997676Y-90890475D02*
X94902438Y-90795237D01*
X94902438Y-90795237D02*
X94854819Y-90652380D01*
X94854819Y-90652380D02*
X94854819Y-90557142D01*
X94854819Y-90557142D02*
X94902438Y-90414285D01*
X94902438Y-90414285D02*
X94950057Y-90366666D01*
X94854819Y-90033332D02*
X94854819Y-89414285D01*
X94854819Y-89414285D02*
X95235771Y-89747618D01*
X95235771Y-89747618D02*
X95235771Y-89604761D01*
X95235771Y-89604761D02*
X95283390Y-89509523D01*
X95283390Y-89509523D02*
X95331009Y-89461904D01*
X95331009Y-89461904D02*
X95426247Y-89414285D01*
X95426247Y-89414285D02*
X95664342Y-89414285D01*
X95664342Y-89414285D02*
X95759580Y-89461904D01*
X95759580Y-89461904D02*
X95807200Y-89509523D01*
X95807200Y-89509523D02*
X95854819Y-89604761D01*
X95854819Y-89604761D02*
X95854819Y-89890475D01*
X95854819Y-89890475D02*
X95807200Y-89985713D01*
X95807200Y-89985713D02*
X95759580Y-90033332D01*
X90487333Y-96951580D02*
X90439714Y-96999200D01*
X90439714Y-96999200D02*
X90296857Y-97046819D01*
X90296857Y-97046819D02*
X90201619Y-97046819D01*
X90201619Y-97046819D02*
X90058762Y-96999200D01*
X90058762Y-96999200D02*
X89963524Y-96903961D01*
X89963524Y-96903961D02*
X89915905Y-96808723D01*
X89915905Y-96808723D02*
X89868286Y-96618247D01*
X89868286Y-96618247D02*
X89868286Y-96475390D01*
X89868286Y-96475390D02*
X89915905Y-96284914D01*
X89915905Y-96284914D02*
X89963524Y-96189676D01*
X89963524Y-96189676D02*
X90058762Y-96094438D01*
X90058762Y-96094438D02*
X90201619Y-96046819D01*
X90201619Y-96046819D02*
X90296857Y-96046819D01*
X90296857Y-96046819D02*
X90439714Y-96094438D01*
X90439714Y-96094438D02*
X90487333Y-96142057D01*
X91392095Y-96046819D02*
X90915905Y-96046819D01*
X90915905Y-96046819D02*
X90868286Y-96523009D01*
X90868286Y-96523009D02*
X90915905Y-96475390D01*
X90915905Y-96475390D02*
X91011143Y-96427771D01*
X91011143Y-96427771D02*
X91249238Y-96427771D01*
X91249238Y-96427771D02*
X91344476Y-96475390D01*
X91344476Y-96475390D02*
X91392095Y-96523009D01*
X91392095Y-96523009D02*
X91439714Y-96618247D01*
X91439714Y-96618247D02*
X91439714Y-96856342D01*
X91439714Y-96856342D02*
X91392095Y-96951580D01*
X91392095Y-96951580D02*
X91344476Y-96999200D01*
X91344476Y-96999200D02*
X91249238Y-97046819D01*
X91249238Y-97046819D02*
X91011143Y-97046819D01*
X91011143Y-97046819D02*
X90915905Y-96999200D01*
X90915905Y-96999200D02*
X90868286Y-96951580D01*
X95142319Y-94408666D02*
X94666128Y-94741999D01*
X95142319Y-94980094D02*
X94142319Y-94980094D01*
X94142319Y-94980094D02*
X94142319Y-94599142D01*
X94142319Y-94599142D02*
X94189938Y-94503904D01*
X94189938Y-94503904D02*
X94237557Y-94456285D01*
X94237557Y-94456285D02*
X94332795Y-94408666D01*
X94332795Y-94408666D02*
X94475652Y-94408666D01*
X94475652Y-94408666D02*
X94570890Y-94456285D01*
X94570890Y-94456285D02*
X94618509Y-94503904D01*
X94618509Y-94503904D02*
X94666128Y-94599142D01*
X94666128Y-94599142D02*
X94666128Y-94980094D01*
X94142319Y-93503904D02*
X94142319Y-93980094D01*
X94142319Y-93980094D02*
X94618509Y-94027713D01*
X94618509Y-94027713D02*
X94570890Y-93980094D01*
X94570890Y-93980094D02*
X94523271Y-93884856D01*
X94523271Y-93884856D02*
X94523271Y-93646761D01*
X94523271Y-93646761D02*
X94570890Y-93551523D01*
X94570890Y-93551523D02*
X94618509Y-93503904D01*
X94618509Y-93503904D02*
X94713747Y-93456285D01*
X94713747Y-93456285D02*
X94951842Y-93456285D01*
X94951842Y-93456285D02*
X95047080Y-93503904D01*
X95047080Y-93503904D02*
X95094700Y-93551523D01*
X95094700Y-93551523D02*
X95142319Y-93646761D01*
X95142319Y-93646761D02*
X95142319Y-93884856D01*
X95142319Y-93884856D02*
X95094700Y-93980094D01*
X95094700Y-93980094D02*
X95047080Y-94027713D01*
X95381833Y-81933319D02*
X95048500Y-81457128D01*
X94810405Y-81933319D02*
X94810405Y-80933319D01*
X94810405Y-80933319D02*
X95191357Y-80933319D01*
X95191357Y-80933319D02*
X95286595Y-80980938D01*
X95286595Y-80980938D02*
X95334214Y-81028557D01*
X95334214Y-81028557D02*
X95381833Y-81123795D01*
X95381833Y-81123795D02*
X95381833Y-81266652D01*
X95381833Y-81266652D02*
X95334214Y-81361890D01*
X95334214Y-81361890D02*
X95286595Y-81409509D01*
X95286595Y-81409509D02*
X95191357Y-81457128D01*
X95191357Y-81457128D02*
X94810405Y-81457128D01*
X95715167Y-80933319D02*
X96334214Y-80933319D01*
X96334214Y-80933319D02*
X96000881Y-81314271D01*
X96000881Y-81314271D02*
X96143738Y-81314271D01*
X96143738Y-81314271D02*
X96238976Y-81361890D01*
X96238976Y-81361890D02*
X96286595Y-81409509D01*
X96286595Y-81409509D02*
X96334214Y-81504747D01*
X96334214Y-81504747D02*
X96334214Y-81742842D01*
X96334214Y-81742842D02*
X96286595Y-81838080D01*
X96286595Y-81838080D02*
X96238976Y-81885700D01*
X96238976Y-81885700D02*
X96143738Y-81933319D01*
X96143738Y-81933319D02*
X95858024Y-81933319D01*
X95858024Y-81933319D02*
X95762786Y-81885700D01*
X95762786Y-81885700D02*
X95715167Y-81838080D01*
X94149819Y-86763333D02*
X94864104Y-86763333D01*
X94864104Y-86763333D02*
X95006961Y-86810952D01*
X95006961Y-86810952D02*
X95102200Y-86906190D01*
X95102200Y-86906190D02*
X95149819Y-87049047D01*
X95149819Y-87049047D02*
X95149819Y-87144285D01*
X95149819Y-86287142D02*
X94149819Y-86287142D01*
X94149819Y-86287142D02*
X94149819Y-85906190D01*
X94149819Y-85906190D02*
X94197438Y-85810952D01*
X94197438Y-85810952D02*
X94245057Y-85763333D01*
X94245057Y-85763333D02*
X94340295Y-85715714D01*
X94340295Y-85715714D02*
X94483152Y-85715714D01*
X94483152Y-85715714D02*
X94578390Y-85763333D01*
X94578390Y-85763333D02*
X94626009Y-85810952D01*
X94626009Y-85810952D02*
X94673628Y-85906190D01*
X94673628Y-85906190D02*
X94673628Y-86287142D01*
X94245057Y-85334761D02*
X94197438Y-85287142D01*
X94197438Y-85287142D02*
X94149819Y-85191904D01*
X94149819Y-85191904D02*
X94149819Y-84953809D01*
X94149819Y-84953809D02*
X94197438Y-84858571D01*
X94197438Y-84858571D02*
X94245057Y-84810952D01*
X94245057Y-84810952D02*
X94340295Y-84763333D01*
X94340295Y-84763333D02*
X94435533Y-84763333D01*
X94435533Y-84763333D02*
X94578390Y-84810952D01*
X94578390Y-84810952D02*
X95149819Y-85382380D01*
X95149819Y-85382380D02*
X95149819Y-84763333D01*
X95047080Y-92266666D02*
X95094700Y-92314285D01*
X95094700Y-92314285D02*
X95142319Y-92457142D01*
X95142319Y-92457142D02*
X95142319Y-92552380D01*
X95142319Y-92552380D02*
X95094700Y-92695237D01*
X95094700Y-92695237D02*
X94999461Y-92790475D01*
X94999461Y-92790475D02*
X94904223Y-92838094D01*
X94904223Y-92838094D02*
X94713747Y-92885713D01*
X94713747Y-92885713D02*
X94570890Y-92885713D01*
X94570890Y-92885713D02*
X94380414Y-92838094D01*
X94380414Y-92838094D02*
X94285176Y-92790475D01*
X94285176Y-92790475D02*
X94189938Y-92695237D01*
X94189938Y-92695237D02*
X94142319Y-92552380D01*
X94142319Y-92552380D02*
X94142319Y-92457142D01*
X94142319Y-92457142D02*
X94189938Y-92314285D01*
X94189938Y-92314285D02*
X94237557Y-92266666D01*
X94475652Y-91409523D02*
X95142319Y-91409523D01*
X94094700Y-91647618D02*
X94808985Y-91885713D01*
X94808985Y-91885713D02*
X94808985Y-91266666D01*
X87655405Y-85616819D02*
X87655405Y-84616819D01*
X87655405Y-84616819D02*
X87893500Y-84616819D01*
X87893500Y-84616819D02*
X88036357Y-84664438D01*
X88036357Y-84664438D02*
X88131595Y-84759676D01*
X88131595Y-84759676D02*
X88179214Y-84854914D01*
X88179214Y-84854914D02*
X88226833Y-85045390D01*
X88226833Y-85045390D02*
X88226833Y-85188247D01*
X88226833Y-85188247D02*
X88179214Y-85378723D01*
X88179214Y-85378723D02*
X88131595Y-85473961D01*
X88131595Y-85473961D02*
X88036357Y-85569200D01*
X88036357Y-85569200D02*
X87893500Y-85616819D01*
X87893500Y-85616819D02*
X87655405Y-85616819D01*
X89179214Y-85616819D02*
X88607786Y-85616819D01*
X88893500Y-85616819D02*
X88893500Y-84616819D01*
X88893500Y-84616819D02*
X88798262Y-84759676D01*
X88798262Y-84759676D02*
X88703024Y-84854914D01*
X88703024Y-84854914D02*
X88607786Y-84902533D01*
X92290833Y-85583819D02*
X91957500Y-85107628D01*
X91719405Y-85583819D02*
X91719405Y-84583819D01*
X91719405Y-84583819D02*
X92100357Y-84583819D01*
X92100357Y-84583819D02*
X92195595Y-84631438D01*
X92195595Y-84631438D02*
X92243214Y-84679057D01*
X92243214Y-84679057D02*
X92290833Y-84774295D01*
X92290833Y-84774295D02*
X92290833Y-84917152D01*
X92290833Y-84917152D02*
X92243214Y-85012390D01*
X92243214Y-85012390D02*
X92195595Y-85060009D01*
X92195595Y-85060009D02*
X92100357Y-85107628D01*
X92100357Y-85107628D02*
X91719405Y-85107628D01*
X92624167Y-84583819D02*
X93290833Y-84583819D01*
X93290833Y-84583819D02*
X92862262Y-85583819D01*
X95381833Y-83711319D02*
X95048500Y-83235128D01*
X94810405Y-83711319D02*
X94810405Y-82711319D01*
X94810405Y-82711319D02*
X95191357Y-82711319D01*
X95191357Y-82711319D02*
X95286595Y-82758938D01*
X95286595Y-82758938D02*
X95334214Y-82806557D01*
X95334214Y-82806557D02*
X95381833Y-82901795D01*
X95381833Y-82901795D02*
X95381833Y-83044652D01*
X95381833Y-83044652D02*
X95334214Y-83139890D01*
X95334214Y-83139890D02*
X95286595Y-83187509D01*
X95286595Y-83187509D02*
X95191357Y-83235128D01*
X95191357Y-83235128D02*
X94810405Y-83235128D01*
X95762786Y-82806557D02*
X95810405Y-82758938D01*
X95810405Y-82758938D02*
X95905643Y-82711319D01*
X95905643Y-82711319D02*
X96143738Y-82711319D01*
X96143738Y-82711319D02*
X96238976Y-82758938D01*
X96238976Y-82758938D02*
X96286595Y-82806557D01*
X96286595Y-82806557D02*
X96334214Y-82901795D01*
X96334214Y-82901795D02*
X96334214Y-82997033D01*
X96334214Y-82997033D02*
X96286595Y-83139890D01*
X96286595Y-83139890D02*
X95715167Y-83711319D01*
X95715167Y-83711319D02*
X96334214Y-83711319D01*
X96778333Y-94539580D02*
X96730714Y-94587200D01*
X96730714Y-94587200D02*
X96587857Y-94634819D01*
X96587857Y-94634819D02*
X96492619Y-94634819D01*
X96492619Y-94634819D02*
X96349762Y-94587200D01*
X96349762Y-94587200D02*
X96254524Y-94491961D01*
X96254524Y-94491961D02*
X96206905Y-94396723D01*
X96206905Y-94396723D02*
X96159286Y-94206247D01*
X96159286Y-94206247D02*
X96159286Y-94063390D01*
X96159286Y-94063390D02*
X96206905Y-93872914D01*
X96206905Y-93872914D02*
X96254524Y-93777676D01*
X96254524Y-93777676D02*
X96349762Y-93682438D01*
X96349762Y-93682438D02*
X96492619Y-93634819D01*
X96492619Y-93634819D02*
X96587857Y-93634819D01*
X96587857Y-93634819D02*
X96730714Y-93682438D01*
X96730714Y-93682438D02*
X96778333Y-93730057D01*
X97730714Y-94634819D02*
X97159286Y-94634819D01*
X97445000Y-94634819D02*
X97445000Y-93634819D01*
X97445000Y-93634819D02*
X97349762Y-93777676D01*
X97349762Y-93777676D02*
X97254524Y-93872914D01*
X97254524Y-93872914D02*
X97159286Y-93920533D01*
D13*
%TO.C,R4*%
X87210500Y-90512742D02*
X87210500Y-90987258D01*
X88255500Y-90512742D02*
X88255500Y-90987258D01*
%TO.C,U2*%
X89580000Y-91468500D02*
X89580000Y-91893500D01*
X89580000Y-93688500D02*
X89580000Y-93263500D01*
X89755000Y-91468500D02*
X89580000Y-91468500D01*
X89755000Y-93688500D02*
X89580000Y-93688500D01*
X91625000Y-91468500D02*
X91800000Y-91468500D01*
X91800000Y-91468500D02*
X91800000Y-91893500D01*
X91810000Y-93263500D02*
X91810000Y-93458500D01*
X91950000Y-93888500D02*
X91670000Y-93888500D01*
X91810000Y-93698500D01*
X91950000Y-93888500D01*
G36*
X91950000Y-93888500D02*
G01*
X91670000Y-93888500D01*
X91810000Y-93698500D01*
X91950000Y-93888500D01*
G37*
%TO.C,U1*%
X98072500Y-89570000D02*
X98247500Y-89570000D01*
X98072500Y-90245000D02*
X98072500Y-89570000D01*
X98072500Y-92115000D02*
X98072500Y-92790000D01*
X98072500Y-92790000D02*
X98247500Y-92790000D01*
X100792500Y-90245000D02*
X100792500Y-89870000D01*
X100792500Y-92115000D02*
X100792500Y-92790000D01*
X100792500Y-92790000D02*
X100617500Y-92790000D01*
X100982500Y-89710000D02*
X100792500Y-89570000D01*
X100982500Y-89430000D01*
X100982500Y-89710000D01*
G36*
X100982500Y-89710000D02*
G01*
X100792500Y-89570000D01*
X100982500Y-89430000D01*
X100982500Y-89710000D01*
G37*
%TO.C,JP1*%
X98745000Y-86780000D02*
X98745000Y-85380000D01*
X99445000Y-84680000D02*
X100045000Y-84680000D01*
X100045000Y-87480000D02*
X99445000Y-87480000D01*
X100745000Y-85380000D02*
X100745000Y-86780000D01*
X98745000Y-85380000D02*
G75*
G02*
X99445000Y-84680000I700000J0D01*
G01*
X99445000Y-87480000D02*
G75*
G02*
X98745000Y-86780000I-1J699999D01*
G01*
X100045000Y-84680000D02*
G75*
G02*
X100745000Y-85380000I0J-700000D01*
G01*
X100745000Y-86780000D02*
G75*
G02*
X100045000Y-87480000I-699999J-1D01*
G01*
D14*
%TO.C,REF\u002A\u002A*%
G36*
X99152579Y-73243645D02*
G01*
X99494708Y-73307884D01*
X99826880Y-73416620D01*
X100144101Y-73569279D01*
X100441378Y-73765292D01*
X100713717Y-74004084D01*
X100933825Y-74255690D01*
X101133595Y-74559053D01*
X101286805Y-74886107D01*
X101392853Y-75231127D01*
X101451135Y-75588390D01*
X101461049Y-75952170D01*
X101421992Y-76316742D01*
X101333360Y-76676382D01*
X101219807Y-76971254D01*
X101087682Y-77214465D01*
X100914975Y-77458476D01*
X100713483Y-77688786D01*
X100495001Y-77890895D01*
X100430000Y-77942273D01*
X100288232Y-78038460D01*
X100116250Y-78137614D01*
X99930792Y-78231475D01*
X99748595Y-78311779D01*
X99586399Y-78370265D01*
X99532417Y-78385317D01*
X99337813Y-78425753D01*
X99131490Y-78455164D01*
X98930021Y-78472082D01*
X98749980Y-78475037D01*
X98627175Y-78465615D01*
X98335842Y-78417075D01*
X98089173Y-78360415D01*
X97877534Y-78292934D01*
X97691296Y-78211934D01*
X97654889Y-78193154D01*
X97326544Y-77989868D01*
X97034869Y-77748985D01*
X96782721Y-77474042D01*
X96572954Y-77168574D01*
X96408427Y-76836116D01*
X96301850Y-76518474D01*
X96278118Y-76421707D01*
X96261372Y-76330726D01*
X96250526Y-76232857D01*
X96244494Y-76115427D01*
X96242191Y-75965761D01*
X96242266Y-75822771D01*
X96242937Y-75742122D01*
X96629109Y-75742122D01*
X96629727Y-75979196D01*
X96649445Y-76204700D01*
X96684599Y-76384781D01*
X96798077Y-76709329D01*
X96954059Y-77006501D01*
X97147938Y-77273363D01*
X97375107Y-77506985D01*
X97630957Y-77704434D01*
X97910881Y-77862779D01*
X98210273Y-77979086D01*
X98524524Y-78050425D01*
X98849028Y-78073863D01*
X99179176Y-78046468D01*
X99269619Y-78029783D01*
X99606695Y-77933190D01*
X99918532Y-77789618D01*
X100201586Y-77602156D01*
X100452312Y-77373892D01*
X100667162Y-77107916D01*
X100842592Y-76807316D01*
X100941827Y-76573039D01*
X101018525Y-76290093D01*
X101054932Y-75984043D01*
X101051181Y-75668439D01*
X101007403Y-75356832D01*
X100927288Y-75072502D01*
X100818228Y-74834041D01*
X100667370Y-74594215D01*
X100485413Y-74366527D01*
X100283059Y-74164480D01*
X100086907Y-74012066D01*
X99786495Y-73841511D01*
X99476037Y-73721785D01*
X99160087Y-73651145D01*
X98843200Y-73627846D01*
X98529928Y-73650142D01*
X98224827Y-73716289D01*
X97932451Y-73824541D01*
X97657353Y-73973155D01*
X97404087Y-74160384D01*
X97177209Y-74384484D01*
X96981271Y-74643709D01*
X96820828Y-74936316D01*
X96700434Y-75260559D01*
X96685128Y-75315497D01*
X96647579Y-75514035D01*
X96629109Y-75742122D01*
X96242937Y-75742122D01*
X96243734Y-75646341D01*
X96247288Y-75512025D01*
X96254256Y-75407379D01*
X96265966Y-75319957D01*
X96283747Y-75237315D01*
X96308927Y-75147006D01*
X96317386Y-75118976D01*
X96453363Y-74757759D01*
X96631530Y-74430453D01*
X96853794Y-74134163D01*
X97122065Y-73865993D01*
X97170389Y-73824661D01*
X97467381Y-73609912D01*
X97784382Y-73443090D01*
X98116396Y-73323624D01*
X98458429Y-73250943D01*
X98805488Y-73224474D01*
X99152579Y-73243645D01*
G37*
G36*
X99745757Y-74485929D02*
G01*
X99745757Y-74663265D01*
X98968206Y-74663265D01*
X98190655Y-74663265D01*
X98190655Y-75153881D01*
X98190655Y-75644498D01*
X98879538Y-75651787D01*
X99568421Y-75659076D01*
X99568421Y-75822771D01*
X99568421Y-75986466D01*
X98879538Y-75993755D01*
X98190655Y-76001044D01*
X98190655Y-76546225D01*
X98190655Y-77091407D01*
X98995489Y-77091407D01*
X99800322Y-77091407D01*
X99800322Y-77268743D01*
X99800322Y-77446079D01*
X98790870Y-77446079D01*
X97781418Y-77446079D01*
X97781418Y-75877336D01*
X97781418Y-74308593D01*
X98763588Y-74308593D01*
X99745757Y-74308593D01*
X99745757Y-74485929D01*
G37*
D13*
%TO.C,R1*%
X100247500Y-82667258D02*
X100247500Y-82192742D01*
X101292500Y-82667258D02*
X101292500Y-82192742D01*
%TO.C,R6*%
X90827758Y-89465500D02*
X90353242Y-89465500D01*
X90827758Y-90510500D02*
X90353242Y-90510500D01*
%TO.C,C2*%
X99304420Y-95570000D02*
X99585580Y-95570000D01*
X99304420Y-96590000D02*
X99585580Y-96590000D01*
%TO.C,JP3*%
X86479000Y-95084500D02*
X86479000Y-93684500D01*
X87179000Y-92984500D02*
X87779000Y-92984500D01*
X87779000Y-95784500D02*
X87179000Y-95784500D01*
X88479000Y-93684500D02*
X88479000Y-95084500D01*
X86479000Y-93684500D02*
G75*
G02*
X87179000Y-92984500I699999J1D01*
G01*
X87179000Y-95784500D02*
G75*
G02*
X86479000Y-95084500I0J700000D01*
G01*
X87779000Y-92984500D02*
G75*
G02*
X88479000Y-93684500I1J-699999D01*
G01*
X88479000Y-95084500D02*
G75*
G02*
X87779000Y-95784500I-700000J0D01*
G01*
%TO.C,C3*%
X96235000Y-91039420D02*
X96235000Y-91320580D01*
X97255000Y-91039420D02*
X97255000Y-91320580D01*
%TO.C,C5*%
X90576920Y-94685000D02*
X90858080Y-94685000D01*
X90576920Y-95705000D02*
X90858080Y-95705000D01*
D14*
%TO.C,G\u002A\u002A\u002A*%
G36*
X91237343Y-75440243D02*
G01*
X91253183Y-75440248D01*
X91267491Y-75440258D01*
X91280363Y-75440277D01*
X91291895Y-75440306D01*
X91302182Y-75440348D01*
X91311322Y-75440404D01*
X91319410Y-75440479D01*
X91326542Y-75440573D01*
X91332815Y-75440690D01*
X91338325Y-75440831D01*
X91343167Y-75440999D01*
X91347438Y-75441196D01*
X91351235Y-75441426D01*
X91354653Y-75441689D01*
X91357788Y-75441989D01*
X91360738Y-75442327D01*
X91363596Y-75442707D01*
X91366461Y-75443130D01*
X91368654Y-75443475D01*
X91385497Y-75446788D01*
X91401206Y-75451146D01*
X91415754Y-75456532D01*
X91429111Y-75462933D01*
X91441251Y-75470331D01*
X91452146Y-75478712D01*
X91461768Y-75488060D01*
X91470088Y-75498360D01*
X91471744Y-75500756D01*
X91476967Y-75509294D01*
X91481268Y-75518075D01*
X91484808Y-75527493D01*
X91487749Y-75537941D01*
X91488815Y-75542599D01*
X91489629Y-75547464D01*
X91490281Y-75553562D01*
X91490760Y-75560505D01*
X91491053Y-75567903D01*
X91491148Y-75575368D01*
X91491031Y-75582512D01*
X91490691Y-75588945D01*
X91490418Y-75591909D01*
X91488206Y-75605957D01*
X91484773Y-75618937D01*
X91480125Y-75630837D01*
X91474273Y-75641649D01*
X91467225Y-75651362D01*
X91458989Y-75659966D01*
X91449574Y-75667451D01*
X91438989Y-75673808D01*
X91427242Y-75679025D01*
X91414343Y-75683095D01*
X91410186Y-75684104D01*
X91402042Y-75685953D01*
X91405707Y-75686870D01*
X91411230Y-75688402D01*
X91417499Y-75690385D01*
X91424052Y-75692654D01*
X91430426Y-75695040D01*
X91436158Y-75697378D01*
X91440784Y-75699500D01*
X91440899Y-75699558D01*
X91453699Y-75706870D01*
X91465407Y-75715365D01*
X91475971Y-75724974D01*
X91485336Y-75735632D01*
X91493447Y-75747270D01*
X91500251Y-75759824D01*
X91505694Y-75773224D01*
X91508661Y-75783063D01*
X91510525Y-75790994D01*
X91511878Y-75798711D01*
X91512771Y-75806674D01*
X91513256Y-75815341D01*
X91513387Y-75824594D01*
X91512775Y-75840632D01*
X91510962Y-75855611D01*
X91507922Y-75869598D01*
X91503631Y-75882661D01*
X91498063Y-75894868D01*
X91491191Y-75906288D01*
X91482992Y-75916986D01*
X91475777Y-75924757D01*
X91465985Y-75933689D01*
X91455507Y-75941622D01*
X91444228Y-75948604D01*
X91432036Y-75954687D01*
X91418816Y-75959919D01*
X91404455Y-75964350D01*
X91388840Y-75968031D01*
X91371857Y-75971011D01*
X91369588Y-75971343D01*
X91367814Y-75971593D01*
X91366097Y-75971818D01*
X91364348Y-75972020D01*
X91362476Y-75972202D01*
X91360392Y-75972363D01*
X91358007Y-75972506D01*
X91355230Y-75972631D01*
X91351972Y-75972742D01*
X91348143Y-75972838D01*
X91343652Y-75972922D01*
X91338412Y-75972995D01*
X91332331Y-75973059D01*
X91325319Y-75973115D01*
X91317288Y-75973164D01*
X91308147Y-75973208D01*
X91297807Y-75973249D01*
X91286177Y-75973288D01*
X91273169Y-75973327D01*
X91258691Y-75973366D01*
X91246300Y-75973399D01*
X91135347Y-75973688D01*
X91135347Y-75816442D01*
X91207008Y-75816442D01*
X91207008Y-75914261D01*
X91278059Y-75913942D01*
X91290472Y-75913886D01*
X91301371Y-75913832D01*
X91310870Y-75913778D01*
X91319084Y-75913722D01*
X91326128Y-75913660D01*
X91332114Y-75913588D01*
X91337160Y-75913505D01*
X91341377Y-75913407D01*
X91344882Y-75913291D01*
X91347789Y-75913155D01*
X91350212Y-75912994D01*
X91352265Y-75912807D01*
X91354064Y-75912590D01*
X91355722Y-75912340D01*
X91357354Y-75912054D01*
X91358475Y-75911844D01*
X91371793Y-75908806D01*
X91383712Y-75904988D01*
X91394290Y-75900337D01*
X91403589Y-75894799D01*
X91411667Y-75888318D01*
X91418584Y-75880839D01*
X91424400Y-75872309D01*
X91429173Y-75862673D01*
X91432965Y-75851876D01*
X91435573Y-75841185D01*
X91436226Y-75836757D01*
X91436702Y-75831096D01*
X91437000Y-75824589D01*
X91437120Y-75817623D01*
X91437063Y-75810585D01*
X91436827Y-75803860D01*
X91436414Y-75797835D01*
X91435821Y-75792898D01*
X91435595Y-75791613D01*
X91432556Y-75779501D01*
X91428396Y-75768562D01*
X91423096Y-75758775D01*
X91416634Y-75750120D01*
X91408991Y-75742575D01*
X91400145Y-75736119D01*
X91390077Y-75730729D01*
X91378765Y-75726386D01*
X91370690Y-75724102D01*
X91367384Y-75723289D01*
X91364365Y-75722573D01*
X91361510Y-75721947D01*
X91358695Y-75721404D01*
X91355798Y-75720939D01*
X91352694Y-75720544D01*
X91349262Y-75720212D01*
X91345378Y-75719938D01*
X91340918Y-75719714D01*
X91335759Y-75719533D01*
X91329778Y-75719389D01*
X91322853Y-75719275D01*
X91314859Y-75719184D01*
X91305674Y-75719110D01*
X91295175Y-75719046D01*
X91283237Y-75718985D01*
X91276024Y-75718950D01*
X91207008Y-75718623D01*
X91207008Y-75816442D01*
X91135347Y-75816442D01*
X91135347Y-75718623D01*
X91135347Y-75706957D01*
X91135347Y-75579885D01*
X91207008Y-75579885D01*
X91207008Y-75660098D01*
X91266659Y-75660095D01*
X91277970Y-75660082D01*
X91288650Y-75660045D01*
X91298574Y-75659987D01*
X91307622Y-75659908D01*
X91315669Y-75659809D01*
X91322595Y-75659694D01*
X91328275Y-75659562D01*
X91332589Y-75659416D01*
X91335413Y-75659257D01*
X91335674Y-75659234D01*
X91349452Y-75657442D01*
X91362012Y-75654707D01*
X91373324Y-75651040D01*
X91383358Y-75646453D01*
X91392084Y-75640957D01*
X91399114Y-75634925D01*
X91405194Y-75627840D01*
X91410164Y-75619821D01*
X91414113Y-75610706D01*
X91416398Y-75603284D01*
X91417262Y-75598929D01*
X91417936Y-75593403D01*
X91418402Y-75587151D01*
X91418641Y-75580622D01*
X91418635Y-75574263D01*
X91418366Y-75568521D01*
X91417962Y-75564758D01*
X91415643Y-75553793D01*
X91412040Y-75543829D01*
X91407157Y-75534870D01*
X91400994Y-75526918D01*
X91393555Y-75519974D01*
X91384841Y-75514043D01*
X91374855Y-75509125D01*
X91363600Y-75505224D01*
X91359332Y-75504091D01*
X91356111Y-75503317D01*
X91353068Y-75502639D01*
X91350074Y-75502050D01*
X91347002Y-75501544D01*
X91343724Y-75501116D01*
X91340113Y-75500758D01*
X91336039Y-75500464D01*
X91331377Y-75500228D01*
X91325998Y-75500044D01*
X91319775Y-75499905D01*
X91312579Y-75499806D01*
X91304283Y-75499739D01*
X91294759Y-75499699D01*
X91283880Y-75499679D01*
X91271518Y-75499673D01*
X91269671Y-75499673D01*
X91207008Y-75499673D01*
X91207008Y-75579885D01*
X91135347Y-75579885D01*
X91135347Y-75499673D01*
X91135347Y-75440226D01*
X91237343Y-75440243D01*
G37*
G36*
X88639919Y-75430655D02*
G01*
X88648149Y-75430849D01*
X88656095Y-75431159D01*
X88663382Y-75431577D01*
X88669633Y-75432096D01*
X88672581Y-75432432D01*
X88692346Y-75435719D01*
X88711148Y-75440310D01*
X88729020Y-75446221D01*
X88745995Y-75453468D01*
X88762106Y-75462064D01*
X88777383Y-75472026D01*
X88791861Y-75483369D01*
X88802577Y-75493143D01*
X88815728Y-75506876D01*
X88827614Y-75521301D01*
X88838266Y-75536482D01*
X88847712Y-75552488D01*
X88855983Y-75569385D01*
X88863108Y-75587238D01*
X88869116Y-75606115D01*
X88874038Y-75626083D01*
X88877903Y-75647207D01*
X88880605Y-75668241D01*
X88880990Y-75673112D01*
X88881290Y-75679325D01*
X88881505Y-75686594D01*
X88881637Y-75694636D01*
X88881687Y-75703165D01*
X88881658Y-75711896D01*
X88881550Y-75720545D01*
X88881365Y-75728827D01*
X88881104Y-75736458D01*
X88880769Y-75743152D01*
X88880361Y-75748624D01*
X88880187Y-75750326D01*
X88877058Y-75772670D01*
X88872835Y-75793840D01*
X88867498Y-75813884D01*
X88861027Y-75832852D01*
X88853404Y-75850792D01*
X88844608Y-75867753D01*
X88834621Y-75883785D01*
X88823424Y-75898936D01*
X88819494Y-75903711D01*
X88815224Y-75908539D01*
X88810168Y-75913888D01*
X88804653Y-75919443D01*
X88799004Y-75924886D01*
X88793546Y-75929902D01*
X88788604Y-75934174D01*
X88785983Y-75936279D01*
X88771169Y-75946843D01*
X88755865Y-75956005D01*
X88739950Y-75963813D01*
X88723304Y-75970317D01*
X88705806Y-75975563D01*
X88687338Y-75979602D01*
X88673317Y-75981797D01*
X88667389Y-75982436D01*
X88660238Y-75982972D01*
X88652257Y-75983396D01*
X88643835Y-75983696D01*
X88635363Y-75983864D01*
X88627233Y-75983888D01*
X88619836Y-75983760D01*
X88613562Y-75983469D01*
X88612122Y-75983362D01*
X88591606Y-75980980D01*
X88572020Y-75977266D01*
X88553347Y-75972211D01*
X88535567Y-75965809D01*
X88518662Y-75958051D01*
X88502614Y-75948928D01*
X88487405Y-75938432D01*
X88473017Y-75926557D01*
X88463890Y-75917887D01*
X88450705Y-75903515D01*
X88438760Y-75888101D01*
X88428061Y-75871666D01*
X88418616Y-75854232D01*
X88410431Y-75835820D01*
X88403511Y-75816451D01*
X88397864Y-75796147D01*
X88393496Y-75774928D01*
X88390414Y-75752817D01*
X88388623Y-75729833D01*
X88388210Y-75709848D01*
X88464287Y-75709848D01*
X88464883Y-75729014D01*
X88466407Y-75747872D01*
X88468857Y-75766155D01*
X88472232Y-75783595D01*
X88475869Y-75797696D01*
X88481618Y-75814979D01*
X88488432Y-75831125D01*
X88496280Y-75846104D01*
X88505128Y-75859887D01*
X88514945Y-75872445D01*
X88525698Y-75883750D01*
X88537354Y-75893770D01*
X88549881Y-75902478D01*
X88563248Y-75909844D01*
X88577420Y-75915838D01*
X88592367Y-75920433D01*
X88608055Y-75923597D01*
X88616601Y-75924679D01*
X88621493Y-75925014D01*
X88627574Y-75925180D01*
X88634412Y-75925190D01*
X88641578Y-75925052D01*
X88648640Y-75924777D01*
X88655169Y-75924376D01*
X88660733Y-75923859D01*
X88662957Y-75923569D01*
X88678519Y-75920488D01*
X88693337Y-75915962D01*
X88707392Y-75910003D01*
X88720665Y-75902624D01*
X88733138Y-75893837D01*
X88744792Y-75883655D01*
X88755608Y-75872091D01*
X88765569Y-75859157D01*
X88771510Y-75850126D01*
X88779624Y-75835655D01*
X88786634Y-75820240D01*
X88792559Y-75803818D01*
X88797418Y-75786324D01*
X88801230Y-75767697D01*
X88804014Y-75747873D01*
X88804817Y-75739903D01*
X88805195Y-75734441D01*
X88805478Y-75727710D01*
X88805666Y-75720062D01*
X88805761Y-75711855D01*
X88805761Y-75703442D01*
X88805668Y-75695179D01*
X88805481Y-75687422D01*
X88805200Y-75680526D01*
X88804826Y-75674845D01*
X88804783Y-75674349D01*
X88802288Y-75653442D01*
X88798658Y-75633698D01*
X88793890Y-75615109D01*
X88787981Y-75597667D01*
X88780929Y-75581366D01*
X88772730Y-75566196D01*
X88763383Y-75552151D01*
X88760869Y-75548818D01*
X88750398Y-75536464D01*
X88739198Y-75525557D01*
X88727253Y-75516090D01*
X88714550Y-75508055D01*
X88701072Y-75501446D01*
X88686807Y-75496255D01*
X88671737Y-75492476D01*
X88655850Y-75490101D01*
X88639129Y-75489123D01*
X88635738Y-75489094D01*
X88618749Y-75489787D01*
X88602580Y-75491886D01*
X88587217Y-75495397D01*
X88572646Y-75500327D01*
X88558855Y-75506680D01*
X88545831Y-75514463D01*
X88533561Y-75523683D01*
X88522031Y-75534344D01*
X88511525Y-75546090D01*
X88504043Y-75556151D01*
X88496909Y-75567528D01*
X88490275Y-75579923D01*
X88484288Y-75593035D01*
X88479099Y-75606565D01*
X88475250Y-75618796D01*
X88471195Y-75635476D01*
X88468072Y-75653190D01*
X88465880Y-75671668D01*
X88464619Y-75690644D01*
X88464287Y-75709848D01*
X88388210Y-75709848D01*
X88388131Y-75706000D01*
X88388944Y-75681337D01*
X88389491Y-75673127D01*
X88391832Y-75650983D01*
X88395471Y-75629608D01*
X88400389Y-75609049D01*
X88406565Y-75589351D01*
X88413979Y-75570561D01*
X88422610Y-75552725D01*
X88432437Y-75535888D01*
X88443442Y-75520095D01*
X88455602Y-75505394D01*
X88468897Y-75491830D01*
X88471098Y-75489797D01*
X88485181Y-75477908D01*
X88499853Y-75467411D01*
X88515188Y-75458275D01*
X88531262Y-75450468D01*
X88548149Y-75443959D01*
X88565927Y-75438715D01*
X88584669Y-75434707D01*
X88604451Y-75431902D01*
X88611703Y-75431192D01*
X88617299Y-75430846D01*
X88624118Y-75430646D01*
X88631784Y-75430585D01*
X88639919Y-75430655D01*
G37*
G36*
X91816133Y-75440249D02*
G01*
X91857257Y-75440266D01*
X91957013Y-75702176D01*
X91964602Y-75722100D01*
X91972050Y-75741656D01*
X91979337Y-75760788D01*
X91986441Y-75779439D01*
X91993340Y-75797554D01*
X92000013Y-75815075D01*
X92006438Y-75831948D01*
X92012595Y-75848114D01*
X92018462Y-75863519D01*
X92024016Y-75878106D01*
X92029238Y-75891818D01*
X92034105Y-75904600D01*
X92038597Y-75916395D01*
X92042691Y-75927146D01*
X92046366Y-75936799D01*
X92049601Y-75945295D01*
X92052374Y-75952580D01*
X92054664Y-75958597D01*
X92056450Y-75963289D01*
X92057709Y-75966600D01*
X92058422Y-75968474D01*
X92058568Y-75968859D01*
X92060366Y-75973634D01*
X92022785Y-75973422D01*
X91985205Y-75973210D01*
X91961056Y-75905213D01*
X91936907Y-75837216D01*
X91816462Y-75837020D01*
X91696018Y-75836825D01*
X91672457Y-75903389D01*
X91668911Y-75913403D01*
X91665508Y-75923001D01*
X91662291Y-75932070D01*
X91659298Y-75940495D01*
X91656572Y-75948160D01*
X91654153Y-75954953D01*
X91652081Y-75960758D01*
X91650398Y-75965460D01*
X91649144Y-75968946D01*
X91648359Y-75971101D01*
X91648100Y-75971785D01*
X91647304Y-75973618D01*
X91609568Y-75973618D01*
X91601903Y-75973606D01*
X91594761Y-75973571D01*
X91588300Y-75973517D01*
X91582683Y-75973445D01*
X91578067Y-75973358D01*
X91574615Y-75973259D01*
X91572485Y-75973150D01*
X91571832Y-75973043D01*
X91572119Y-75972248D01*
X91572966Y-75969986D01*
X91574353Y-75966311D01*
X91576258Y-75961279D01*
X91578662Y-75954944D01*
X91581542Y-75947361D01*
X91584879Y-75938583D01*
X91588651Y-75928667D01*
X91592838Y-75917666D01*
X91597419Y-75905635D01*
X91602373Y-75892628D01*
X91607679Y-75878701D01*
X91613317Y-75863908D01*
X91619265Y-75848303D01*
X91625503Y-75831941D01*
X91632010Y-75814877D01*
X91638766Y-75797165D01*
X91645748Y-75778860D01*
X91646857Y-75775953D01*
X91718412Y-75775953D01*
X91719210Y-75776029D01*
X91721537Y-75776102D01*
X91725294Y-75776172D01*
X91730380Y-75776238D01*
X91736697Y-75776299D01*
X91744146Y-75776354D01*
X91752625Y-75776404D01*
X91762037Y-75776448D01*
X91772281Y-75776484D01*
X91783259Y-75776513D01*
X91794869Y-75776534D01*
X91807014Y-75776545D01*
X91816133Y-75776548D01*
X91828603Y-75776544D01*
X91840613Y-75776534D01*
X91852061Y-75776517D01*
X91862848Y-75776495D01*
X91872876Y-75776467D01*
X91882044Y-75776434D01*
X91890253Y-75776396D01*
X91897403Y-75776355D01*
X91903396Y-75776309D01*
X91908130Y-75776261D01*
X91911508Y-75776209D01*
X91913428Y-75776155D01*
X91913853Y-75776115D01*
X91913576Y-75775285D01*
X91912766Y-75773025D01*
X91911459Y-75769428D01*
X91909691Y-75764591D01*
X91907496Y-75758609D01*
X91904911Y-75751578D01*
X91901970Y-75743592D01*
X91898709Y-75734746D01*
X91895163Y-75725137D01*
X91891367Y-75714859D01*
X91887357Y-75704008D01*
X91883168Y-75692679D01*
X91878835Y-75680968D01*
X91874394Y-75668968D01*
X91869879Y-75656777D01*
X91865327Y-75644489D01*
X91860773Y-75632200D01*
X91856251Y-75620004D01*
X91851798Y-75607997D01*
X91847448Y-75596275D01*
X91843236Y-75584932D01*
X91839199Y-75574064D01*
X91835371Y-75563767D01*
X91831788Y-75554135D01*
X91828485Y-75545264D01*
X91825497Y-75537250D01*
X91822860Y-75530186D01*
X91820609Y-75524170D01*
X91818779Y-75519295D01*
X91817406Y-75515658D01*
X91816524Y-75513354D01*
X91816170Y-75512477D01*
X91816167Y-75512473D01*
X91815846Y-75513171D01*
X91814998Y-75515304D01*
X91813657Y-75518775D01*
X91811858Y-75523490D01*
X91809637Y-75529354D01*
X91807029Y-75536273D01*
X91804068Y-75544152D01*
X91800791Y-75552896D01*
X91797231Y-75562410D01*
X91793425Y-75572599D01*
X91789407Y-75583370D01*
X91785213Y-75594626D01*
X91780878Y-75606274D01*
X91776436Y-75618218D01*
X91771923Y-75630364D01*
X91767375Y-75642618D01*
X91762826Y-75654883D01*
X91758312Y-75667066D01*
X91753867Y-75679073D01*
X91749527Y-75690807D01*
X91745327Y-75702174D01*
X91741302Y-75713081D01*
X91737487Y-75723431D01*
X91733918Y-75733130D01*
X91730629Y-75742083D01*
X91727656Y-75750197D01*
X91725034Y-75757375D01*
X91722798Y-75763523D01*
X91720983Y-75768547D01*
X91719624Y-75772351D01*
X91718757Y-75774842D01*
X91718416Y-75775923D01*
X91718412Y-75775953D01*
X91646857Y-75775953D01*
X91652938Y-75760017D01*
X91660313Y-75740690D01*
X91667854Y-75720933D01*
X91673420Y-75706350D01*
X91775009Y-75440231D01*
X91816133Y-75440249D01*
G37*
G36*
X89856023Y-75469950D02*
G01*
X89856023Y-75499673D01*
X89721657Y-75499673D01*
X89587291Y-75499673D01*
X89587291Y-75579416D01*
X89587291Y-75659160D01*
X89659157Y-75659515D01*
X89673897Y-75659599D01*
X89687266Y-75659699D01*
X89699233Y-75659815D01*
X89709765Y-75659946D01*
X89718831Y-75660090D01*
X89726398Y-75660249D01*
X89732435Y-75660421D01*
X89736911Y-75660606D01*
X89739792Y-75660803D01*
X89739980Y-75660823D01*
X89758375Y-75663276D01*
X89775436Y-75666593D01*
X89791222Y-75670799D01*
X89805797Y-75675920D01*
X89819219Y-75681979D01*
X89831550Y-75689002D01*
X89842852Y-75697014D01*
X89853185Y-75706039D01*
X89854854Y-75707681D01*
X89863911Y-75717702D01*
X89871641Y-75728366D01*
X89878116Y-75739812D01*
X89883408Y-75752180D01*
X89887591Y-75765608D01*
X89889778Y-75775118D01*
X89891094Y-75782171D01*
X89892084Y-75788788D01*
X89892774Y-75795341D01*
X89893193Y-75802204D01*
X89893366Y-75809751D01*
X89893319Y-75818353D01*
X89893220Y-75823244D01*
X89892930Y-75832166D01*
X89892493Y-75839836D01*
X89891864Y-75846629D01*
X89890998Y-75852919D01*
X89889850Y-75859079D01*
X89888374Y-75865485D01*
X89887865Y-75867493D01*
X89883400Y-75881859D01*
X89877680Y-75895185D01*
X89870708Y-75907471D01*
X89862486Y-75918715D01*
X89853013Y-75928917D01*
X89842291Y-75938075D01*
X89830322Y-75946189D01*
X89817106Y-75953257D01*
X89802645Y-75959279D01*
X89786939Y-75964253D01*
X89771369Y-75967908D01*
X89767831Y-75968615D01*
X89764597Y-75969255D01*
X89761571Y-75969831D01*
X89758662Y-75970348D01*
X89755773Y-75970807D01*
X89752813Y-75971214D01*
X89749687Y-75971572D01*
X89746301Y-75971883D01*
X89742561Y-75972153D01*
X89738374Y-75972383D01*
X89733645Y-75972579D01*
X89728281Y-75972743D01*
X89722189Y-75972878D01*
X89715274Y-75972990D01*
X89707442Y-75973080D01*
X89698600Y-75973153D01*
X89688653Y-75973212D01*
X89677509Y-75973260D01*
X89665073Y-75973302D01*
X89651252Y-75973341D01*
X89635951Y-75973380D01*
X89626176Y-75973405D01*
X89514815Y-75973688D01*
X89514815Y-75816445D01*
X89587291Y-75816445D01*
X89587291Y-75914261D01*
X89658342Y-75913942D01*
X89670757Y-75913886D01*
X89681658Y-75913832D01*
X89691159Y-75913778D01*
X89699375Y-75913722D01*
X89706421Y-75913659D01*
X89712410Y-75913588D01*
X89717458Y-75913504D01*
X89721678Y-75913406D01*
X89725186Y-75913290D01*
X89728095Y-75913153D01*
X89730521Y-75912993D01*
X89732578Y-75912805D01*
X89734380Y-75912588D01*
X89736042Y-75912338D01*
X89737678Y-75912053D01*
X89738758Y-75911851D01*
X89752208Y-75908758D01*
X89764265Y-75904834D01*
X89774925Y-75900080D01*
X89784187Y-75894499D01*
X89792048Y-75888090D01*
X89795301Y-75884745D01*
X89801920Y-75876352D01*
X89807324Y-75867190D01*
X89811587Y-75857098D01*
X89814785Y-75845916D01*
X89815823Y-75840881D01*
X89816495Y-75835997D01*
X89816971Y-75829931D01*
X89817250Y-75823098D01*
X89817332Y-75815915D01*
X89817216Y-75808800D01*
X89816902Y-75802170D01*
X89816388Y-75796441D01*
X89815899Y-75793131D01*
X89812980Y-75780922D01*
X89808942Y-75769883D01*
X89803760Y-75759989D01*
X89797412Y-75751217D01*
X89789875Y-75743541D01*
X89781124Y-75736937D01*
X89771135Y-75731379D01*
X89759887Y-75726844D01*
X89750201Y-75723995D01*
X89747025Y-75723200D01*
X89744094Y-75722500D01*
X89741286Y-75721888D01*
X89738480Y-75721357D01*
X89735552Y-75720901D01*
X89732381Y-75720514D01*
X89728845Y-75720189D01*
X89724821Y-75719920D01*
X89720187Y-75719699D01*
X89714821Y-75719520D01*
X89708601Y-75719377D01*
X89701404Y-75719264D01*
X89693109Y-75719173D01*
X89683593Y-75719099D01*
X89672733Y-75719034D01*
X89660409Y-75718972D01*
X89655899Y-75718951D01*
X89587291Y-75718630D01*
X89587291Y-75816445D01*
X89514815Y-75816445D01*
X89514815Y-75718630D01*
X89514815Y-75706957D01*
X89514815Y-75440226D01*
X89685419Y-75440226D01*
X89856023Y-75440226D01*
X89856023Y-75469950D01*
G37*
G36*
X93589760Y-75700000D02*
G01*
X93589760Y-76143000D01*
X90400407Y-76143000D01*
X87211055Y-76143000D01*
X87211055Y-75883293D01*
X87211055Y-75862418D01*
X87273091Y-75862418D01*
X87273091Y-75883293D01*
X87273092Y-75903404D01*
X87273095Y-75922702D01*
X87273099Y-75941136D01*
X87273106Y-75958655D01*
X87273113Y-75975207D01*
X87273122Y-75990744D01*
X87273133Y-76005214D01*
X87273145Y-76018565D01*
X87273159Y-76030749D01*
X87273174Y-76041714D01*
X87273191Y-76051409D01*
X87273209Y-76059783D01*
X87273228Y-76066787D01*
X87273249Y-76072370D01*
X87273271Y-76076480D01*
X87273294Y-76079067D01*
X87273319Y-76080080D01*
X87273321Y-76080092D01*
X87273606Y-76080121D01*
X87274448Y-76080150D01*
X87275858Y-76080178D01*
X87277852Y-76080205D01*
X87280441Y-76080232D01*
X87283638Y-76080259D01*
X87287457Y-76080284D01*
X87291911Y-76080310D01*
X87297013Y-76080334D01*
X87302775Y-76080358D01*
X87309212Y-76080382D01*
X87316335Y-76080405D01*
X87324159Y-76080428D01*
X87332695Y-76080450D01*
X87341958Y-76080471D01*
X87351960Y-76080492D01*
X87362714Y-76080513D01*
X87374234Y-76080533D01*
X87386532Y-76080552D01*
X87399621Y-76080571D01*
X87413515Y-76080590D01*
X87428226Y-76080608D01*
X87443768Y-76080626D01*
X87460154Y-76080643D01*
X87477396Y-76080659D01*
X87495508Y-76080675D01*
X87514503Y-76080691D01*
X87534394Y-76080706D01*
X87555194Y-76080721D01*
X87576916Y-76080735D01*
X87599573Y-76080748D01*
X87623178Y-76080762D01*
X87647744Y-76080775D01*
X87673285Y-76080787D01*
X87699813Y-76080799D01*
X87727341Y-76080810D01*
X87755883Y-76080821D01*
X87785451Y-76080832D01*
X87816058Y-76080842D01*
X87847719Y-76080852D01*
X87880445Y-76080861D01*
X87914249Y-76080870D01*
X87949146Y-76080878D01*
X87985147Y-76080886D01*
X88022266Y-76080894D01*
X88060516Y-76080901D01*
X88099910Y-76080908D01*
X88140462Y-76080914D01*
X88182183Y-76080920D01*
X88225087Y-76080926D01*
X88269188Y-76080931D01*
X88314498Y-76080935D01*
X88361031Y-76080940D01*
X88408798Y-76080944D01*
X88457815Y-76080947D01*
X88508093Y-76080951D01*
X88559645Y-76080954D01*
X88612485Y-76080956D01*
X88666626Y-76080958D01*
X88722080Y-76080960D01*
X88778862Y-76080961D01*
X88836983Y-76080962D01*
X88896457Y-76080963D01*
X88957297Y-76080963D01*
X89019517Y-76080963D01*
X89083128Y-76080963D01*
X89148145Y-76080962D01*
X89214580Y-76080961D01*
X89282446Y-76080960D01*
X89351756Y-76080958D01*
X89422524Y-76080956D01*
X89494762Y-76080954D01*
X89568484Y-76080951D01*
X89643703Y-76080948D01*
X89720431Y-76080945D01*
X89798681Y-76080941D01*
X89878468Y-76080937D01*
X89959803Y-76080933D01*
X90042700Y-76080928D01*
X90127173Y-76080924D01*
X90213233Y-76080918D01*
X90300894Y-76080913D01*
X90390169Y-76080907D01*
X90400585Y-76080907D01*
X93527463Y-76080703D01*
X93527463Y-75700000D01*
X93527463Y-75319297D01*
X90400407Y-75319297D01*
X87273351Y-75319297D01*
X87273143Y-75699186D01*
X87273130Y-75723983D01*
X87273119Y-75748372D01*
X87273110Y-75772302D01*
X87273103Y-75795723D01*
X87273097Y-75818582D01*
X87273093Y-75840831D01*
X87273091Y-75862418D01*
X87211055Y-75862418D01*
X87211055Y-75700000D01*
X87211055Y-75257001D01*
X90400407Y-75257001D01*
X93589760Y-75257001D01*
X93589760Y-75700000D01*
G37*
G36*
X89067945Y-75571698D02*
G01*
X89068151Y-75703170D01*
X89196749Y-75571698D01*
X89325348Y-75440226D01*
X89371825Y-75440226D01*
X89418302Y-75440226D01*
X89401132Y-75457531D01*
X89398364Y-75460331D01*
X89394549Y-75464204D01*
X89389777Y-75469060D01*
X89384138Y-75474805D01*
X89377724Y-75481347D01*
X89370623Y-75488595D01*
X89362926Y-75496457D01*
X89354723Y-75504839D01*
X89346105Y-75513651D01*
X89337161Y-75522799D01*
X89327982Y-75532193D01*
X89318658Y-75541739D01*
X89311230Y-75549348D01*
X89301943Y-75558861D01*
X89292786Y-75568237D01*
X89283846Y-75577389D01*
X89275206Y-75586230D01*
X89266952Y-75594675D01*
X89259168Y-75602635D01*
X89251938Y-75610026D01*
X89245348Y-75616759D01*
X89239483Y-75622748D01*
X89234427Y-75627907D01*
X89230265Y-75632149D01*
X89227082Y-75635387D01*
X89225174Y-75637320D01*
X89211851Y-75650781D01*
X89320215Y-75811996D01*
X89428579Y-75973210D01*
X89389653Y-75973431D01*
X89380686Y-75973481D01*
X89373207Y-75973514D01*
X89367075Y-75973527D01*
X89362150Y-75973514D01*
X89358290Y-75973471D01*
X89355355Y-75973392D01*
X89353204Y-75973273D01*
X89351697Y-75973109D01*
X89350693Y-75972895D01*
X89350050Y-75972625D01*
X89349629Y-75972295D01*
X89349386Y-75972021D01*
X89348804Y-75971192D01*
X89347356Y-75969076D01*
X89345088Y-75965740D01*
X89342042Y-75961247D01*
X89338263Y-75955664D01*
X89333795Y-75949055D01*
X89328682Y-75941485D01*
X89322967Y-75933020D01*
X89316695Y-75923725D01*
X89309909Y-75913665D01*
X89302654Y-75902905D01*
X89294973Y-75891509D01*
X89286911Y-75879545D01*
X89278511Y-75867075D01*
X89269818Y-75854166D01*
X89260875Y-75840883D01*
X89257457Y-75835806D01*
X89248437Y-75822407D01*
X89239654Y-75809363D01*
X89231150Y-75796739D01*
X89222970Y-75784600D01*
X89215158Y-75773009D01*
X89207756Y-75762032D01*
X89200810Y-75751734D01*
X89194362Y-75742180D01*
X89188457Y-75733434D01*
X89183137Y-75725561D01*
X89178448Y-75718625D01*
X89174432Y-75712693D01*
X89171133Y-75707828D01*
X89168596Y-75704095D01*
X89166863Y-75701559D01*
X89165979Y-75700285D01*
X89165874Y-75700144D01*
X89165508Y-75700138D01*
X89164750Y-75700579D01*
X89163536Y-75701527D01*
X89161803Y-75703047D01*
X89159486Y-75705201D01*
X89156522Y-75708051D01*
X89152846Y-75711660D01*
X89148394Y-75716090D01*
X89143103Y-75721405D01*
X89136908Y-75727666D01*
X89129746Y-75734937D01*
X89121552Y-75743279D01*
X89116337Y-75748597D01*
X89067794Y-75798128D01*
X89067769Y-75885873D01*
X89067744Y-75973618D01*
X89031506Y-75973618D01*
X88995268Y-75973618D01*
X88995268Y-75706922D01*
X88995268Y-75440226D01*
X89031503Y-75440226D01*
X89067739Y-75440226D01*
X89067945Y-75571698D01*
G37*
G36*
X90657533Y-75663000D02*
G01*
X90657738Y-75885774D01*
X90775809Y-75663000D01*
X90893880Y-75440226D01*
X90942545Y-75440226D01*
X90991209Y-75440226D01*
X90991209Y-75706922D01*
X90991209Y-75973618D01*
X90956194Y-75973618D01*
X90921179Y-75973618D01*
X90920974Y-75750777D01*
X90920769Y-75527937D01*
X90802690Y-75750769D01*
X90684611Y-75973601D01*
X90635954Y-75973609D01*
X90587298Y-75973618D01*
X90587298Y-75706922D01*
X90587298Y-75440226D01*
X90622313Y-75440226D01*
X90657328Y-75440226D01*
X90657533Y-75663000D01*
G37*
G36*
X93589760Y-78007018D02*
G01*
X93589760Y-78450018D01*
X93146760Y-78450018D01*
X92703761Y-78450018D01*
X92703761Y-78007018D01*
X92703761Y-77564019D01*
X93146760Y-77564019D01*
X93589760Y-77564019D01*
X93589760Y-78007018D01*
G37*
G36*
X93589760Y-76853509D02*
G01*
X93589760Y-77296916D01*
X93146760Y-77296916D01*
X92703761Y-77296916D01*
X92703761Y-76853509D01*
X92703761Y-76410102D01*
X93146760Y-76410102D01*
X93589760Y-76410102D01*
X93589760Y-76853509D01*
G37*
G36*
X93589760Y-74546491D02*
G01*
X93589760Y-74989898D01*
X93146760Y-74989898D01*
X92703761Y-74989898D01*
X92703761Y-74546491D01*
X92703761Y-74103084D01*
X93146760Y-74103084D01*
X93589760Y-74103084D01*
X93589760Y-74546491D01*
G37*
G36*
X93589760Y-73392982D02*
G01*
X93589760Y-73835982D01*
X93146760Y-73835982D01*
X92703761Y-73835982D01*
X92703761Y-73392982D01*
X92703761Y-72949983D01*
X93146760Y-72949983D01*
X93589760Y-72949983D01*
X93589760Y-73392982D01*
G37*
G36*
X92491219Y-78007018D02*
G01*
X92491219Y-78450018D01*
X92048219Y-78450018D01*
X91605219Y-78450018D01*
X91605219Y-78007018D01*
X91605219Y-77564019D01*
X92048219Y-77564019D01*
X92491219Y-77564019D01*
X92491219Y-78007018D01*
G37*
G36*
X92491219Y-76853509D02*
G01*
X92491219Y-77296916D01*
X92048219Y-77296916D01*
X91605219Y-77296916D01*
X91605219Y-76853509D01*
X91605219Y-76410102D01*
X92048219Y-76410102D01*
X92491219Y-76410102D01*
X92491219Y-76853509D01*
G37*
G36*
X92491219Y-74546491D02*
G01*
X92491219Y-74989898D01*
X92048219Y-74989898D01*
X91605219Y-74989898D01*
X91605219Y-74546491D01*
X91605219Y-74103084D01*
X92048219Y-74103084D01*
X92491219Y-74103084D01*
X92491219Y-74546491D01*
G37*
G36*
X92491219Y-73392982D02*
G01*
X92491219Y-73835982D01*
X92048219Y-73835982D01*
X91605219Y-73835982D01*
X91605219Y-73392982D01*
X91605219Y-72949983D01*
X92048219Y-72949983D01*
X92491219Y-72949983D01*
X92491219Y-73392982D01*
G37*
G36*
X92333237Y-75539168D02*
G01*
X92333237Y-75638110D01*
X92302700Y-75638110D01*
X92272162Y-75638110D01*
X92272162Y-75539168D01*
X92272162Y-75440226D01*
X92302700Y-75440226D01*
X92333237Y-75440226D01*
X92333237Y-75539168D01*
G37*
G36*
X92198057Y-75539168D02*
G01*
X92198057Y-75638110D01*
X92167520Y-75638110D01*
X92136982Y-75638110D01*
X92136982Y-75539168D01*
X92136982Y-75440226D01*
X92167520Y-75440226D01*
X92198057Y-75440226D01*
X92198057Y-75539168D01*
G37*
G36*
X91392677Y-78007018D02*
G01*
X91392677Y-78450018D01*
X90949678Y-78450018D01*
X90506678Y-78450018D01*
X90506678Y-78007018D01*
X90506678Y-77564019D01*
X90949678Y-77564019D01*
X91392677Y-77564019D01*
X91392677Y-78007018D01*
G37*
G36*
X91392677Y-76853509D02*
G01*
X91392677Y-77296916D01*
X90949678Y-77296916D01*
X90506678Y-77296916D01*
X90506678Y-76853509D01*
X90506678Y-76410102D01*
X90949678Y-76410102D01*
X91392677Y-76410102D01*
X91392677Y-76853509D01*
G37*
G36*
X91392677Y-74546491D02*
G01*
X91392677Y-74989898D01*
X90949678Y-74989898D01*
X90506678Y-74989898D01*
X90506678Y-74546491D01*
X90506678Y-74103084D01*
X90949678Y-74103084D01*
X91392677Y-74103084D01*
X91392677Y-74546491D01*
G37*
G36*
X91392677Y-73392982D02*
G01*
X91392677Y-73835982D01*
X90949678Y-73835982D01*
X90506678Y-73835982D01*
X90506678Y-73392982D01*
X90506678Y-72949983D01*
X90949678Y-72949983D01*
X91392677Y-72949983D01*
X91392677Y-73392982D01*
G37*
G36*
X90444789Y-75539168D02*
G01*
X90444789Y-75638110D01*
X90414658Y-75638110D01*
X90384528Y-75638110D01*
X90384528Y-75539168D01*
X90384528Y-75440226D01*
X90414658Y-75440226D01*
X90444789Y-75440226D01*
X90444789Y-75539168D01*
G37*
G36*
X90309609Y-75539168D02*
G01*
X90309609Y-75638110D01*
X90279478Y-75638110D01*
X90249348Y-75638110D01*
X90249348Y-75539168D01*
X90249348Y-75440226D01*
X90279478Y-75440226D01*
X90309609Y-75440226D01*
X90309609Y-75539168D01*
G37*
G36*
X90294136Y-78007018D02*
G01*
X90294136Y-78450018D01*
X89851137Y-78450018D01*
X89408137Y-78450018D01*
X89408137Y-78007018D01*
X89408137Y-77564019D01*
X89851137Y-77564019D01*
X90294136Y-77564019D01*
X90294136Y-78007018D01*
G37*
G36*
X90294136Y-76853509D02*
G01*
X90294136Y-77296916D01*
X89851137Y-77296916D01*
X89408137Y-77296916D01*
X89408137Y-76853509D01*
X89408137Y-76410102D01*
X89851137Y-76410102D01*
X90294136Y-76410102D01*
X90294136Y-76853509D01*
G37*
G36*
X90294136Y-74546491D02*
G01*
X90294136Y-74989898D01*
X89851137Y-74989898D01*
X89408137Y-74989898D01*
X89408137Y-74546491D01*
X89408137Y-74103084D01*
X89851137Y-74103084D01*
X90294136Y-74103084D01*
X90294136Y-74546491D01*
G37*
G36*
X90294136Y-73392982D02*
G01*
X90294136Y-73835982D01*
X89851137Y-73835982D01*
X89408137Y-73835982D01*
X89408137Y-73392982D01*
X89408137Y-72949983D01*
X89851137Y-72949983D01*
X90294136Y-72949983D01*
X90294136Y-73392982D01*
G37*
G36*
X89195595Y-78007018D02*
G01*
X89195595Y-78450018D01*
X88752595Y-78450018D01*
X88309596Y-78450018D01*
X88309596Y-78007018D01*
X88309596Y-77564019D01*
X88752595Y-77564019D01*
X89195595Y-77564019D01*
X89195595Y-78007018D01*
G37*
G36*
X89195595Y-76853509D02*
G01*
X89195595Y-77296916D01*
X88752595Y-77296916D01*
X88309596Y-77296916D01*
X88309596Y-76853509D01*
X88309596Y-76410102D01*
X88752595Y-76410102D01*
X89195595Y-76410102D01*
X89195595Y-76853509D01*
G37*
G36*
X89195595Y-74546491D02*
G01*
X89195595Y-74989898D01*
X88752595Y-74989898D01*
X88309596Y-74989898D01*
X88309596Y-74546491D01*
X88309596Y-74103084D01*
X88752595Y-74103084D01*
X89195595Y-74103084D01*
X89195595Y-74546491D01*
G37*
G36*
X89195595Y-73392982D02*
G01*
X89195595Y-73835982D01*
X88752595Y-73835982D01*
X88309596Y-73835982D01*
X88309596Y-73392982D01*
X88309596Y-72949983D01*
X88752595Y-72949983D01*
X89195595Y-72949983D01*
X89195595Y-73392982D01*
G37*
G36*
X88097054Y-78007018D02*
G01*
X88097054Y-78450018D01*
X87654054Y-78450018D01*
X87211055Y-78450018D01*
X87211055Y-78007018D01*
X87211055Y-77564019D01*
X87654054Y-77564019D01*
X88097054Y-77564019D01*
X88097054Y-78007018D01*
G37*
G36*
X88097054Y-76853509D02*
G01*
X88097054Y-77296916D01*
X87654054Y-77296916D01*
X87211055Y-77296916D01*
X87211055Y-76853509D01*
X87211055Y-76410102D01*
X87654054Y-76410102D01*
X88097054Y-76410102D01*
X88097054Y-76853509D01*
G37*
G36*
X88097054Y-74546491D02*
G01*
X88097054Y-74989898D01*
X87654054Y-74989898D01*
X87211055Y-74989898D01*
X87211055Y-74546491D01*
X87211055Y-74103084D01*
X87654054Y-74103084D01*
X88097054Y-74103084D01*
X88097054Y-74546491D01*
G37*
G36*
X88097054Y-73392982D02*
G01*
X88097054Y-73835982D01*
X87654054Y-73835982D01*
X87211055Y-73835982D01*
X87211055Y-73392982D01*
X87211055Y-72949983D01*
X87654054Y-72949983D01*
X88097054Y-72949983D01*
X88097054Y-73392982D01*
G37*
D13*
%TO.C,R5*%
X92735000Y-94004742D02*
X92735000Y-94479258D01*
X93780000Y-94004742D02*
X93780000Y-94479258D01*
%TO.C,R3*%
X97832742Y-80907500D02*
X98307258Y-80907500D01*
X97832742Y-81952500D02*
X98307258Y-81952500D01*
%TO.C,JP2*%
X95645000Y-86780000D02*
X95645000Y-85380000D01*
X96345000Y-84680000D02*
X96945000Y-84680000D01*
X96945000Y-87480000D02*
X96345000Y-87480000D01*
X97645000Y-85380000D02*
X97645000Y-86780000D01*
X95645000Y-85380000D02*
G75*
G02*
X96345000Y-84680000I700000J0D01*
G01*
X96345000Y-87480000D02*
G75*
G02*
X95645000Y-86780000I-1J699999D01*
G01*
X96945000Y-84680000D02*
G75*
G02*
X97645000Y-85380000I0J-700000D01*
G01*
X97645000Y-86780000D02*
G75*
G02*
X96945000Y-87480000I-699999J-1D01*
G01*
%TO.C,C4*%
X92747500Y-90736420D02*
X92747500Y-91017580D01*
X93767500Y-90736420D02*
X93767500Y-91017580D01*
%TO.C,D1*%
X87657000Y-87294000D02*
X89942000Y-87294000D01*
X89942000Y-85824000D02*
X87657000Y-85824000D01*
X89942000Y-87294000D02*
X89942000Y-85824000D01*
%TO.C,R7*%
X92220242Y-86036500D02*
X92694758Y-86036500D01*
X92220242Y-87081500D02*
X92694758Y-87081500D01*
%TO.C,R2*%
X97832742Y-82707500D02*
X98307258Y-82707500D01*
X97832742Y-83752500D02*
X98307258Y-83752500D01*
%TO.C,C1*%
X99304420Y-93670000D02*
X99585580Y-93670000D01*
X99304420Y-94690000D02*
X99585580Y-94690000D01*
%TD*%
M02*
